<mxfile host="65bd71144e">
    <diagram id="mEMiqVTA-e1M8uCES1xa" name="Architecture">
        <mxGraphModel dx="1048" dy="692" grid="1" gridSize="10" guides="1" tooltips="1" connect="1" arrows="1" fold="1" page="1" pageScale="1" pageWidth="827" pageHeight="1169" math="0" shadow="0">
            <root>
                <mxCell id="0"/>
                <mxCell id="1" parent="0"/>
                <mxCell id="lBRu2IgItmTyhTKSPY7H-1" style="edgeStyle=none;html=1;exitX=0.75;exitY=1;exitDx=0;exitDy=0;" parent="1" source="_bwpJgluy6Un3BcAoZjj-6" edge="1">
                    <mxGeometry relative="1" as="geometry">
                        <mxPoint x="276.11510791366914" y="388" as="targetPoint"/>
                    </mxGeometry>
                </mxCell>
                <mxCell id="pCziPXWChVOFplWuD26y-25" style="edgeStyle=none;html=1;" parent="1" source="_bwpJgluy6Un3BcAoZjj-12" edge="1">
                    <mxGeometry relative="1" as="geometry">
                        <mxPoint x="170" y="382.9000000000001" as="targetPoint"/>
                    </mxGeometry>
                </mxCell>
                <mxCell id="_bwpJgluy6Un3BcAoZjj-12" value="" style="aspect=fixed;html=1;points=[];align=center;image;fontSize=12;image=img/lib/azure2/management_governance/Monitor.svg;" parent="1" vertex="1">
                    <mxGeometry x="42.199999999999996" y="350.09999999999997" width="65.6" height="65.6" as="geometry"/>
                </mxCell>
                <mxCell id="_bwpJgluy6Un3BcAoZjj-13" value="" style="aspect=fixed;html=1;points=[];align=center;image;fontSize=12;image=img/lib/azure2/management_governance/Application_Insights.svg;" parent="1" vertex="1">
                    <mxGeometry x="70.07" y="388" width="34.07" height="48.78" as="geometry"/>
                </mxCell>
                <mxCell id="w8SAgEWD3lU8FvQ8rq3j-8" value="" style="shape=image;verticalLabelPosition=bottom;labelBackgroundColor=default;verticalAlign=top;aspect=fixed;imageAspect=0;image=data:image/png,iVBORw0KGgoAAAANSUhEUgAAAOIAAADfCAMAAADcKv+WAAAA8FBMVEX///8AAAD/43X0pQDgggD9wAbslwD7tQDokADvnAD2qQD/zSf/3l7/4W7mjQD/32TjhwDyoQD8uwP/3VT/0C/+yBv/2Uf/1Dn/32H8uAL/10LrlQD/yyL/3VXIyMicnJxLS0uLi4v/9dH/++7aigH/1Cfy8vL5xGn1zp/77MPOfQLedgDW1tbffAD5sADvxp9cXFxpaWnm5ub0zZ/ZgQFAQEC3t7cjIyN+fn7Q0NCEhIRmZma6uroyMjKTk5OsrKw7OzsVFRX979f6zID4tjX85sb/44b6wyfmmQ3/8sX/8Lj/2j3z07TKcADno1z45tVsSI0JAAAHzElEQVR4nO3ca1faSByAcaMxEEUIigqGi1Rlt1vKAlsQFETa7a5t9/L9v83ONZeZSeKeajOT839Oe6AU0/yYyUz0RXd2IAiCIAiCIAiCIAiCIAiCIAiCIAiCIAiCIAiCIAiChD5++imln/M+vRfo095BpL099Iv8ZtUPrvI+w+/tc0wohpEHeZ/i9/Z7hvBgr/4573P8zkYZQDRVTb8ck338giwoMbrkFJO4F62AxPimUUCi4CsecS8+SeuFIwpAllscojxF8TDW60UhimsMn6T1ohCTBrBeCCK+/g5iwjp/LAxRGryYrxhE1SpaLxYxHVgsYl3hKxJRvgYLQ6wnwIpETM+tuwUiukUdRZeXBHQd04mOG1aPQl0KLAIxyBfHksFNIl79cR6t0UC/Gvx5o/Gn68eIrnnEq/OkGqy6g40uW0gNJB6l+1CHZceNj6BhxJssYePmyXdFoEnEq5vzi1QgChNdMaOIWcLGU9mRhK5vLFHkJRLNHUXJd3jYeKoWZxTlATw8LBRRDSREvxDEJCDq6Voiohs744jJQAWR3LsaRWxIwMNYEaLDgIYRU6Yoqt2OEB0OdJyyQcRUIBK2Y6PoFIAoAqNExzGfeNiQgIzoxIEGE2Vg+7RNRtFxjCW2U33t01NCFHy+4xtIlK9BCiTEsig0cRSThlAeRd844mkGUBjFAGsUUTlFA6A8UX3jiBlAFCf6dKEhT/3qb3mf+nOLEpU+1PWHcngNEp9vFrEtJgoJ0Q+Gjwq1Jb6R+nJxxjpPACLidZnIHM7z/XJZT+LXI0W7YRenCuA+GUWC43O0jNOS+LW2m9G5Ygj39ymR+5hQT+JRlnC3pgCi2HITE2pJfJNN3G0rgJhYDX06E99mEo8E4r5ALDOgbyoRLz1t2RcQy+EIGklky2tbAaTEsiAse2YRgx1EBSwAMbpJKoUBsWwmMX4fgDd6EZhANOVajPlqtSOFz+hRjA9g7X8Rq1UDiEfiCNbSiIKvagBR8BEg6lnEqgFEcQDDnkGsVvUnSlfgM4ieCNSZmDiAJBXwOCBWo2lKVC0xGcTjY06sxvN+zRsk9zYD2Gw2ZeIxJ1bFtBzFWtoUbTYF4jEDUqIk1Jwoz9AmSwFUEz1Py4la44uoGlipVJrCFGVJRM/TmChNUD6AlUqMGAGKo+jRbB2JTcUSGgWiFEBhFD1Pa2LCFVgJU/hiRM/TnJgB7HQqSuHx9S+eCNSUWEkDdnAVFbDFiJ5nElHyUWGnIxNbLUr0xLQmKmZoJ4HYIiGinMZEGZhEbPHMIiYO4AkuSmy1TCQ2a4olhvio8ORkXyVE1+IHQ4gdYROshAMoEluxjCKqlpiTSPsSsFQqqYnvtSTGdnnZx4gtQWgkscOFJ2LSCCYRbVtjonKC0s5O0K2MCFQRbVtT4kkc2AlXGQpEKYAy0bY1JqaN4FmUWColEm1bZ2KGLySW4kWItm0AMQXIiHjg1ETb1px4pvJFgZRYkmJE29ad+OUsC4iJMnBEibZtIvFMShaORoQoAs0gSr6LC4mIfCYR355lACXiiGYiUcmTiCNzifIVqCKOwswh0msxkRcjjkYlE4kfv2UAQ+IoVgLxr7xBijoZQE4ciSmJ7/LmqPr47SLNx4gSUEl8/07HQcT/7cu3m/TU/9H0h7/fCb3/59+8MRAE6dGUNHidgw+kgw+Hr/MvpTSxWHfTlz94jx/8shu+0k39klfo0gp6+X+7Hx68T1/JiTgdDKZdTH3xOYSIywE6+kPwAeZEpJcKmrHjlz44ItLpv0FzlTzJlTiw+LOXqx/MDHRw8pgrcWfGz2faRy9ePtDPf764Y+/sL1b0yXSxoG9cLmbr2R2f3nfoVTTfx5HpHhK3WhAv2fks+ArxEDvLoWWtd/hpLvHjmL1vQV+2rNWcLM3hwaOj+Mi/NkfiLX2GT/xhs1kw45AvhnjJoAM7oyOCHhbLaXfMjejRsmaTbT88eEBEsjl/kh8RWWboYc4Xhim7NrfWlvwZ0zfkGTX1+B/vGT0Y+DBGHKDHe/pKnkQswtfabTCqc0qZRATkPFd0nvKPAq9TffaGhXDwcF/ki3VOxPlqtUFDYU12iDQ4T3r9dOloLa3bBzpBJ+RhST8R3Nq6pG+/FQ8e2fq35PLN+e6GLBMrftGgHimJDkEfLZV0+LZkMNFONx/SZnQdop9RrD570/ySX8j5EdfjHl1K+GqJm9A5e0+kazSW5GMY0uHrWZHI1aomshX1gc3rfFdUfirBvragf7XBZzXAo3CPh6tHX8XnPOaRdSeViDdG/CFqQIyewiWdqAN8ea7w8zk+zTVdOnp8CwlKJy7ogTUgosWlx5/TXQRvgFt0hguCxbOVjNkmXG6Ct5tBHPDbEHLR0RsVPDW3ZBV6tCbdcJMRRJkTdbCjBRH/me7oaEayv0Eatr0/WNsxv41bi998pRLvrGB+507EtwB9xOk+hvcq6HaA7nlLvHyyiYyfb/CXLvvUoSb25qjeLOdNI/4t1CrYCoJ7gH5wc21FvnHehJsGI96LB78L33IbbEo/nDiRvkuc0h/njMNTQVcl2y0XwW0bfvmebooT+k75/m2nu70lrfn3Yfhz+fE/n1J9GzwdDgfqNw0GyW98pZ/iQRAEQRAEQRAEQRAEQRAEQRAEQRAEQRAEQRAEQVAB+g+CoxJAeYgz+wAAAABJRU5ErkJggg==;" parent="1" vertex="1">
                    <mxGeometry x="700" y="525" width="121.61" height="120" as="geometry"/>
                </mxCell>
                <mxCell id="pCziPXWChVOFplWuD26y-46" value="" style="edgeStyle=none;html=1;" parent="1" source="lBRu2IgItmTyhTKSPY7H-6" target="w8SAgEWD3lU8FvQ8rq3j-8" edge="1">
                    <mxGeometry relative="1" as="geometry"/>
                </mxCell>
                <mxCell id="lBRu2IgItmTyhTKSPY7H-6" value="" style="verticalLabelPosition=bottom;html=1;verticalAlign=top;align=center;strokeColor=none;fillColor=#00BEF2;shape=mxgraph.azure.sql_database_sql_azure;" parent="1" vertex="1">
                    <mxGeometry x="740" y="357.9" width="47.5" height="50" as="geometry"/>
                </mxCell>
                <mxCell id="pCziPXWChVOFplWuD26y-1" value="" style="swimlane;startSize=0;" parent="1" vertex="1">
                    <mxGeometry x="175" y="321.5" width="200" height="126" as="geometry"/>
                </mxCell>
                <mxCell id="_bwpJgluy6Un3BcAoZjj-4" value="" style="aspect=fixed;html=1;points=[];align=center;image;fontSize=12;image=img/lib/azure2/ai_machine_learning/Machine_Learning.svg;" parent="pCziPXWChVOFplWuD26y-1" vertex="1">
                    <mxGeometry x="63" y="14.900000000000006" width="64" height="68" as="geometry"/>
                </mxCell>
                <mxCell id="_bwpJgluy6Un3BcAoZjj-6" value="Transformation Pipeline" style="rounded=1;arcSize=9;fillColor=#F7F8F9;align=left;spacingLeft=5;strokeColor=#DEE1E6;html=1;strokeWidth=2;fontColor=#596780;fontSize=12" parent="pCziPXWChVOFplWuD26y-1" vertex="1">
                    <mxGeometry x="25" y="93" width="150" height="33" as="geometry"/>
                </mxCell>
                <mxCell id="pCziPXWChVOFplWuD26y-4" style="edgeStyle=none;html=1;" parent="1" source="pCziPXWChVOFplWuD26y-2" target="_bwpJgluy6Un3BcAoZjj-12" edge="1">
                    <mxGeometry relative="1" as="geometry"/>
                </mxCell>
                <mxCell id="pCziPXWChVOFplWuD26y-2" value="ChatBot Application" style="swimlane;whiteSpace=wrap;html=1;" parent="1" vertex="1">
                    <mxGeometry y="12.8" width="150" height="167.2" as="geometry"/>
                </mxCell>
                <mxCell id="_bwpJgluy6Un3BcAoZjj-1" value="" style="sketch=0;points=[[0,0,0],[0.25,0,0],[0.5,0,0],[0.75,0,0],[1,0,0],[0,1,0],[0.25,1,0],[0.5,1,0],[0.75,1,0],[1,1,0],[0,0.25,0],[0,0.5,0],[0,0.75,0],[1,0.25,0],[1,0.5,0],[1,0.75,0]];points=[[0,0,0],[0.25,0,0],[0.5,0,0],[0.75,0,0],[1,0,0],[0,1,0],[0.25,1,0],[0.5,1,0],[0.75,1,0],[1,1,0],[0,0.25,0],[0,0.5,0],[0,0.75,0],[1,0.25,0],[1,0.5,0],[1,0.75,0]];outlineConnect=0;fontColor=#232F3E;gradientColor=#F34482;gradientDirection=north;fillColor=#BC1356;strokeColor=#ffffff;dashed=0;verticalLabelPosition=bottom;verticalAlign=top;align=center;html=1;fontSize=12;fontStyle=0;aspect=fixed;shape=mxgraph.aws4.resourceIcon;resIcon=mxgraph.aws4.chatbot;" parent="pCziPXWChVOFplWuD26y-2" vertex="1">
                    <mxGeometry x="36" y="27.19999999999997" width="78" height="78" as="geometry"/>
                </mxCell>
                <mxCell id="w8SAgEWD3lU8FvQ8rq3j-1" value="" style="shape=image;verticalLabelPosition=bottom;labelBackgroundColor=default;verticalAlign=top;aspect=fixed;imageAspect=0;image=data:image/jpeg,/9j/4AAQSkZJRgABAQAAAQABAAD/2wCEAAkGBxEQEBUQEhAWEhEWGBgXFxUVExgVFxgaFh0WFxkXFxMZKCggGh0lHRUXITEhJSkrLi4uGSAzODMtNygtLisBCgoKDg0OGxAQGy0mHSUtLi8uLSsuLS0tLS0tLS0vNy0tLTUvLS0tLS0tLS03LS0tLS0tLS8tLS0tLS0tLS0tLf/AABEIAKgBLAMBIgACEQEDEQH/xAAcAAEAAgIDAQAAAAAAAAAAAAAABQcEBgECCAP/xABKEAABAwICBQkEBgcHAwUBAAABAAIDBBEFIQYHEjFBExQiUVJhcYGSMnKRsSNCc4Kh0RZUYpOissEVMzQ1Q1PCNmOEJIOj4fAX/8QAGgEBAAIDAQAAAAAAAAAAAAAAAAMFAQIEBv/EAC4RAAIBAgMGBgEFAQAAAAAAAAABAgMRBBIhBRMxUVKBIjJBYXGRFRRCoeHwsf/aAAwDAQACEQMRAD8AvFERAEREAREQBERAEREAREQBERAEREAREQBERAEREAREQBERAEREAREQBERAEREAREQBRGL+2PdHzKl1EYv7Y90fMoCXREQBERAEREARfOeZsbXPe4NY0Euc42AAzJJO4LV4tY+GOk5NtQSSbA8lIGk9ziLLaMJS8quaynGPmdjbEUP+ktN2nehyfpLTdp3oct9xU6X9EH6zD9cftEwih/0lpu070OT9Jabtu9Dk3FXpf0P1mH64/aJhFhUGKwzkiN9yN4IIPjY7ws1Ryi4uzRPCcZq8XdewREWDYIiIAiIgCIiAIiIAiIgCIiAIiIAiIgCIiAIiIAojF/bHuj5lS6iMX9se6PmUBLoiIAiIgCIiArzXPivJ0kdM09Kd93e5HZx/iLPxVKytW5a0cU5xiMgBuyECFvi25f57ZcPuhai4K6w9PLSS7lVXqZqjLJwCt5emjkJu61ne83on4kX81n3WnaB1djJAT1SN/Brv+P4rb7rpjwPPV6eSo0drri663XF1kiMvDKvkZmScAc/A5O/AlWUFVJKsLRqr5WmYSek3oHxbkPwsfNV+0Kein2LzY1WzlTfz/v4JRERVZfhERAEREAREQBERAERQml2kcWHUxnk6Tj0Y4wbF7zuF+A4k8APALKVwlcksQxCGnYZZpWxMG9z3Bo8M957lpdfrZw+M2Y2abvZGGj/5C0/gqsmmr8Zqtzp5TuaMo42918mNHWcz3lbvhep27Qamrs7i2FosP/cfv9IUuSMfMybJGPmZM0etygebPjni73Ma4fwOJ/BblhOMU9WzlKeZkreOycx3Obvae4quq/U4zZ+grHB3VKxrgfNlrfArQq2gr8GqWkkwy72SMN2PAtex3Obuu1w6rjcmSEvKxkjLys9IIqup9cUQibylJIZrdPZc0R362kkusd9iMt2e9ZVFrfpHG0tPNGO0Nl4HjYg/ALTdy5Gm7lyLHRR+DY3TVjOUp5mytG+x6Te5zDm3zCkFoaBERAFEYv7Y90fMqXURi/tj3R8ygJdERAEREAWDjmItpaaWodujY51usgZN8zYeazlXeubFNimjpQc5n7Tvcjsf5yw/dKlowzzUSOrPJByKfkkc4lzjdziS4niTmT8SuhC7JZX9ikufXB6vkKiOTcA6zvddkfhe/krLJVVStVhYDWctTxvPtW2XeLcj8bX81iPGxyY2F0pdiRul11uuLrc4DtdbLoPWWkfCdzhtDxbkfiCPStXusjDavkZmS9lwJ8NzvwJUVannpuJ0YWruq0Z+/wDBaaLgG+a5Xnj2IREQBERAEREARFomsjTrmA5vBZ1U4XJOYiadziOLjwHmeAOUm3ZGUm3ZG1YxjlLRt2qidkV9wcekfdYM3eQVHaxNIhiVa3kC58LA2OEWLS5zrbR2TmCXENz7IWNgGjVbi0rpAS4X+kqJSSL9V97jY+yN2W7JffR7CeQxuGlkIeYqixI3HYu9psd24Gy6IxUfknjFR+S5dC9G2YdStiABldZ0r+Ln8fujcB1d5KnJZWsaXOcGtAuXEgAAcSTuWDpFifNKSapDNsxsLg29rkbgTwCpKSfFcflLRd0YObR9HTx8RtdZ8dp3UooxctWRKLlqzddKta0MV46Jonk3cq64iHhxk8rDvK0zDtHsTxuTnErjsH/WlyYBvtFGN490AdZurA0W1Y0tLaSotVTDPpD6Jp/Zj+t4uv4BbLpBpHS0DNqeUMuOiwZvd7rBmfHcOtbZktII2zJaRNSodUNE0fSzTSu42LY2+TQCR8SsbFdT8Dmk01TJG/gJQ17D3XABHjn4Lvhut6nfMWzU74YiejJtcoR3vYBl90uVh0VZHOwSxSNkjducxwcD5hYcpx4mG5riecqyjrcIqhcmCdubXsN2vbxsdz29YI8Qru0D0sZiVPtEBk8dhKwbrnc9v7LrHwII4XOVpjo7HiFK+FwAkALonkZseNx8DuI4glUnq9xR9HicN7tD3chK33zs2Pg/ZPkVtpUj7m/nj7nohERQEAURi/tj3R8ypdRGL+2PdHzKAl0REAREQBULrLxTnOIy2N2RWhb9y+3/ABlw8grqx/EhS0stQf8ATYXAHi7c0ebiB5rzc9xcS5xu4m5J4k5kqy2fTu3PscGOqWSidLIuUVoVtzo4LYNCqqzpITx6bfKzXf8AH4KBIW3atMANVNPJbKKI7P2kmTPKzXfgo6klBZmHTdWLguJNXS663XF1KVB2uuCV1uuLoZsWVopWcrSsuekzoH7u7+Gyl1o2gVbsyvhJyeNoeLd/xB/hW8qgxVPJVa7nrMDV3lCL9Vp9BERc51hERAEREBj4jWNghkmf7EbHPd4NBJ+S86YXSzYtiAa930k8hdI4fVb7TiL9TRYeDQrv1jEjCqq3+3byJaD+F1WmpRrTiLyd4p329cQKmp6RbJqekWy5sOoY6eJsMTAyNgs1o/8A2Z4k8VTLP+qP/JP8hV3qkGf9Uf8Akn+QrFP1+DWn6/BZ2sL/ACur+yd/RaXqcr4qeiqpZpGxRiVt3ONh7Ay7z3DNbprC/wArq/snf0VI6KaJVWJOIhs2Jh6cjz0Wkjg0Zudbq8yFmCTg7mYJOLublpVrYc68VA3ZG7l5G9I97Izu8XfBa1oho4cXqHOmrQ117u2nbdQ/vY13Abr526lZ2EassPhiLJI+cPcLOkeSCPsw32PEZ95Wl6Var56a89E8ysb0tgnZmZbO7XCwdbyPitoyjwWhtGUeC0NtxTVXQSQhkO1BK0ZSBxftH/uNdk7yt8MlXdTQYpgMpkaS2Mn+8Z04H9Qe07jwzAPUeKk9Fdak8Fo6sGpi/wBwWErR38H+dj3lWzhGMUtfEXQyNmjIs5tsxf6r4zmPAhatyjx1Ri8o8dUalotrRpqi0dUBTS9on6F3g8+x4Oy7yquxYtfishhIc11WSwtNwdqS4II3i5Vk6Waq4ZQ6WiIgl38kf7p3cOMfll3DeqswyQ0VbG+eF14JWufEcnXYb+FxkRwOWdjdbwy6uJtDLq4nptF8KGsjniZNG4Oje0Oa4cQcwvuuY5wojF/bHuj5lS6iMX9se6PmUBLoiIAiIgK61y4nsU8VKDnK7bd7se4HxcQfuqo1s+sXE+c4jKQbsj+hb9y+1/GX/gtaXoMLTyUku5RYmpnqt9jquLLtZLLosQXOtleWqvCub4ex5FnzkynwNgzy2Wg/eKpnCaB1TPHTt3yPay/UCcz5C58l6TgiaxrWNFmtAaB1ACwCrdoztFQ5ljgIXbkVppJScjVSNt0Sdtvg7P53Hkou63TWBR3bHOBuOw7wOY+BB9S0m668NUz0kymxlHd1pR9OP2c3S663XF10HMZWHVhhmZKPqOBPhucPMEhW21wIuMwdypm6szQ6t5WkZc9KP6M/d9n+EtVbtGn4VPsXGyatpSpv11JtERVBehERAEREBh4zQCpp5ad2Qljey/VtAi/le68+6IYo7DcRY+UFoY50Uw4gHov9JAd91ejlTeuvCIYpoqlh2ZZtoPZbJ3Jhv0ncc2tPXl1Zy0n+1+pLTf7WXEx4cA4EEEXBBuCDuIKo/TvDK2hxKTEWRnkzJykcoG2wXAFnj6vEZ7+BXx0I1iS0DRBK0z0w3AH6SMdTCci39k+RG5XHgmPUtfGXQStkbazmHJzb8HxnMfIpZ037Czgys63WXHWYdUU08fJVDoy1pZd0bz82HuNx3qV1Gf4ap+1b/IFlaVaraeovJSEU0u/YteFx90Zs+7l3LQKOuxPAZixzNhrjcseNqKW3Frxxt1G4yuOC3tGUbRNtJK0T0CsfEP7mT3HfIrUMH1oUE0RfM408jRd0bgXX+zc0dPwsD3LTdKdaM9TeCjYYY3XbtEB0z78A3MMuL9Z7wolTk2RqnJsitWOjcGIuninDhsxNLHNdZzSTa44HwIK40m0Yq8ElZPHUdFxLY5YyWPvv2Xs8B3g28lN6jP8AE1H2TP5ipnXn/haf7Y/yOUzk89vQlcnnsblodiMlTQQTykGR7AXECwJzF7cL2Wj668CaY469gs9pEcluLXX2HHvDsvv9y23Vz/lVL9n/AFKxNbD2jCZ78TEB48rGf6E+SijpPQijpMgdSGLF8E1I435JwezubJfaA7g5pP31ZqpfUe088nP1RDn4l7bfJyuhKq8QqLxBRGL+2PdHzKl1EYv7Y90fMqM0JdERAFHaRYkKWlmqDvYwlt+LjkwebiB5qRVda48T2YYqUHORxkd7rMgD4uN/uKbD095UUSKvU3dNyKnJJzJuTmSd5PWuLLtZcL0ljztzvDFtcV9ebDrKxwbZrLik2vFSQUXoyGo5rVPQkNHK/mVQKhrBI9ocGh17AuFr5cbEjzW3/wD9PqP1eL4u/NaIixPC0Zu8o3EMZWgrRl/w27E9Y008Zikp4wx1rkF1xYg3Ge8WuvhdanK1T2FT7cTesdE+X/1ZRqjClpBWRirVnV8U3dmbdcXXF1xdZIjtdbTq+rtmd8JOUjbj3mfmCfStTuvvh9YYZWSj6jg7xHEeYuPNR1qe8puJNh6m6qxnyLlRdWPDgHA3BFwe4rsvMnrQiIgCIiAKnNeZPOabs8m+3jtNv/xVxquddWEGWljqmi5gcQ73JLAnyc1nkSt6btJG9N+I6aGaKUOIYPBysI5T6QcqyzZQ4SPHtjfuGTrjdktUx7QOvwyTnNK98rG5iSG7ZWD9uMbx1kXB4gKV1NaStjc6gldYPdtwknLaIAdH52BHftdyt9bylKMmbOTjIqbRTWzujrm3G7l4x+MkY+bfgmnGsynkjfTU8LKhpydJOy8fi2M5uPebW71telWr6jrryBvITnPlYwOkf+4zc7xyPevjotq3pKIiST/1M4zD5GgNaf2IswD3m57wl4cReHErLRXV9WV1nlvN4D/qSNN3D9iPIu8TYd5VuYJofSYfC/kY9qXYcDM/pSHLr+qO5tgsrSTSukw9t55emRdsTelI7wbwHebDvVT45p5iGJv5tSxuiY7IRxXdK4bjtyDcM87WA4kp4p/BnxT+DN1Ef38/2LP5lN68/wDC0/2x/kcs3VhoXPh/KTTuaHyNa0RNz2QCT0n7id2QyHWeEdr0mHI00f1jI93k1tj+Lws3vU0F71NDa9XP+VUv2f8AUqvtcWk7ZpG0MTtpkTtqVwORksQGA8dkE37yBvBWut08rGULKGJzYWMaWmRlxI4Ek2DvqZG1xn3hSOger+Wte2eoaYqQG/Su18vc0bw08XdW7rGVDK80jKjleZm56mMFMNI+qeLOqCNn7Nlw0+Zc4+FlYa6xRhrQ1oDWgAAAWAAyAA4BdlBJ3dyGTu7hRGL+2PdHzKl1EYv7Y90fMrBgl0REAVDaf4nznEJXA3Yw8k3wjuD8XF581c2kuJc1pJp+LGHZ949Fg9RC88n4q12ZSu3PsVe0qlkodzquF2Syt7FTc6rNwWgdUVMUDb3ke1txwF+kfJtz5LDst+1QYZt1MlSRlE3Zbl9eS+YPc0OH3goa9Td03ImoQ3lRRPhppog+icZY7vpid+8xk7mv7up3kc9+qr0XLG17S1wDmkEEEXBB3gg7wqn030LdSkzwAup97m7zH+be/hx61BgdoZ7U6nH0fP8Aslx2z8l6lPh6rl/RpTwsrA5bPczrFx4jf+HyWMV82SbD2v6j+G4/hdWVRaFXDkbNdcXXF1xdQmbHN1xdcXXF1kyWloPXctRtBPSjJjPg3Nv8JHwWwKuNXVfsVDoScpW5e8y5/lLvgFY687jKe7rNc9T02Cq7yin6rT6CIi5TrCIiAL51EDZGOje0OY4FrmnMEEWII8F9EQHn7TrQmXDZDIwOfSE3ZILkx9TZDwI4O3HLjkpfRrWtUQNEdVHzloyEgOzLb9q+T/HI9ZKuh7A4EEAg5EEXBB4ELTcX1Y4dOS5rHU7j/suAb+7cC0eQCmVRNWkSqaatIwjrdoNm/JVF+zsM+e3ZatpFrWqZxydLHzdpy277cpv2eDfxPUQp9mp2mvnVzkdQEYPxsfktL010JnwyTlott9NcOZMPajIzAkLfZIO5wsDluOS2iqd9DaKhfQltG9WFTVO5ete6FrjtEE7U7+9xN9nxNz3BWvgmBU1FHydPC2McSM3O73PObj4qpsB1s1ULQyoibUgfXB5OTzsC13wCm59ccWz0KKQu6nSNaPiLn8FrOM2YlGbLNmlaxpe5wa1oJLibAAZkkncF5807x84pXXhBdGLRQNtm659qx3Fzj8A1ddJ9NazEiInHYiJFoIgekeAd9Z5vw3dy33VnoC6ncK2rbaa30URz5O+W2/8AbtuHC/Xuyo5Fd8TKWTV8TYdG9A6KkZGTTskqA1u1I+7+nbNzQ64bne1gFtSIoW2+JC23xCIiwYCiMX9se6PmVLqIxf2x7o+ZQEuiIgNK1tRSOoAWAljZWmS3Zs4Anu2i38FTi9LuAIsRcHgow6N0Jz5lT/uI/wAlY4XHKjDK0V+KwTrTzJnnpLL0J+jVD+pU/wC4j/JP0aof1Kn/AHEf5Lp/KQ6Wc34yfUjz0VemrvCTS0DA5uzJITI8HIgutsgjgQ0Ny67qUgwCjjcHspIGuGYc2FgIPWCBkpJcmLxu+iopWR14XB7mTk3cLhwBFiLg8Fyi4DuKt040IMO1U0rbxb3xjezrc0cWd3Dw3V9KF6TUc/AaMu2jSQlxzJMLL3672VtQ2m4wy1Ff3KmvsxTnmpu3sUzSgiNoO8AL6XVxf2DSfqsP7pn5J/YNJ+qQ/umfkt/ycOlkP4qfUinLri6uT+wKP9Uh/dM/JP7BpP1SH90z8ln8nDpY/FT6kVbo2x7qyAR32hI05cGgjbJ7tm6uNY1JQQw35KJkd9+wxrb+NlkqvxeJVeSaVrFjhMM6EWm73CIi5TrCIiAIiIAiIgC4c0EWIuDvBXKIDUcW1b4bUEu5EwuO8wu2B6M2/goqLVDQg3M1Q4dRfGB8QwFWGi2zy5m2eXMhcC0UoqLOCna1+7lDd7/W65HgMlNIiw3c1buERFgBERAFEYv7Y90fMqXURi/tj3R8ygJdERAEREAREQBERAEREAREQBERAEREAREQBERAEREAREQBERAEREAREQBERAEREAREQBRGL+2PdHzKl1EYv7Y90fMoCS5wztt9QTnDO231BEQDnDO231BOcM7bfUERAOcM7bfUE5wztt9QREA5wztt9QTnDO231BEQDnDO231BOcM7bfUERAOcM7bfUE5wztt9QREA5wztt9QTnDO231BEQDnDO231BOcM7bfUERAOcM7bfUE5wztt9QREA5wztt9QTnDO231BEQDnDO231BOcM7bfUERAOcM7bfUE5wztt9QREA5wztt9QTnDO231BEQDnDO231BOcM7bfUERAOcM7bfUE5wztt9QREA5wztt9QTnDO231BEQDnDO231BOcM7bfUERAOcM7bfUE5wztt9QREA5wztt9QUTi07NsdNvsj6w6yiID//2Q==;" parent="pCziPXWChVOFplWuD26y-2" vertex="1">
                    <mxGeometry x="42" y="105.2" width="62.14" height="34.8" as="geometry"/>
                </mxCell>
                <mxCell id="pCziPXWChVOFplWuD26y-33" style="edgeStyle=none;html=1;" parent="1" source="pCziPXWChVOFplWuD26y-7" edge="1">
                    <mxGeometry relative="1" as="geometry">
                        <mxPoint x="690" y="384" as="targetPoint"/>
                    </mxGeometry>
                </mxCell>
                <mxCell id="pCziPXWChVOFplWuD26y-7" value="" style="swimlane;startSize=0;" parent="1" vertex="1">
                    <mxGeometry x="430" y="320" width="200" height="127.5" as="geometry"/>
                </mxCell>
                <mxCell id="pCziPXWChVOFplWuD26y-8" value="" style="aspect=fixed;html=1;points=[];align=center;image;fontSize=12;image=img/lib/azure2/ai_machine_learning/Machine_Learning.svg;" parent="pCziPXWChVOFplWuD26y-7" vertex="1">
                    <mxGeometry x="56" y="14.900000000000006" width="64" height="68" as="geometry"/>
                </mxCell>
                <mxCell id="pCziPXWChVOFplWuD26y-9" value="Evaluation Pipeline" style="rounded=1;arcSize=9;fillColor=#F7F8F9;align=left;spacingLeft=5;strokeColor=#DEE1E6;html=1;strokeWidth=2;fontColor=#596780;fontSize=12" parent="pCziPXWChVOFplWuD26y-7" vertex="1">
                    <mxGeometry x="25" y="93" width="150" height="33" as="geometry"/>
                </mxCell>
                <mxCell id="w8SAgEWD3lU8FvQ8rq3j-2" value="" style="shape=image;verticalLabelPosition=bottom;labelBackgroundColor=default;verticalAlign=top;aspect=fixed;imageAspect=0;image=data:image/jpeg,/9j/4AAQSkZJRgABAQAAAQABAAD/2wCEAAkGBxEQEBUQEhAWEhEWGBgXFxUVExgVFxgaFh0WFxkXFxMZKCggGh0lHRUXITEhJSkrLi4uGSAzODMtNygtLisBCgoKDg0OGxAQGy0mHSUtLi8uLSsuLS0tLS0tLS0vNy0tLTUvLS0tLS0tLS03LS0tLS0tLS8tLS0tLS0tLS0tLf/AABEIAKgBLAMBIgACEQEDEQH/xAAcAAEAAgIDAQAAAAAAAAAAAAAABQcEBgECCAP/xABKEAABAwICBQkEBgcHAwUBAAABAAIDBBEFIQYHEjFBExQiUVJhcYGSMnKRsSNCc4Kh0RZUYpOissEVMzQ1Q1PCNmOEJIOj4fAX/8QAGgEBAAIDAQAAAAAAAAAAAAAAAAMFAQIEBv/EAC4RAAIBAgMGBgEFAQAAAAAAAAABAgMRBBIhBRMxUVKBIjJBYXGRFRRCoeHwsf/aAAwDAQACEQMRAD8AvFERAEREAREQBERAEREAREQBERAEREAREQBERAEREAREQBERAEREAREQBERAEREAREQBRGL+2PdHzKl1EYv7Y90fMoCXREQBERAEREARfOeZsbXPe4NY0Euc42AAzJJO4LV4tY+GOk5NtQSSbA8lIGk9ziLLaMJS8quaynGPmdjbEUP+ktN2nehyfpLTdp3oct9xU6X9EH6zD9cftEwih/0lpu070OT9Jabtu9Dk3FXpf0P1mH64/aJhFhUGKwzkiN9yN4IIPjY7ws1Ryi4uzRPCcZq8XdewREWDYIiIAiIgCIiAIiIAiIgCIiAIiIAiIgCIiAIiIAojF/bHuj5lS6iMX9se6PmUBLoiIAiIgCIiArzXPivJ0kdM09Kd93e5HZx/iLPxVKytW5a0cU5xiMgBuyECFvi25f57ZcPuhai4K6w9PLSS7lVXqZqjLJwCt5emjkJu61ne83on4kX81n3WnaB1djJAT1SN/Brv+P4rb7rpjwPPV6eSo0drri663XF1kiMvDKvkZmScAc/A5O/AlWUFVJKsLRqr5WmYSek3oHxbkPwsfNV+0Kein2LzY1WzlTfz/v4JRERVZfhERAEREAREQBERAERQml2kcWHUxnk6Tj0Y4wbF7zuF+A4k8APALKVwlcksQxCGnYZZpWxMG9z3Bo8M957lpdfrZw+M2Y2abvZGGj/5C0/gqsmmr8Zqtzp5TuaMo42918mNHWcz3lbvhep27Qamrs7i2FosP/cfv9IUuSMfMybJGPmZM0etygebPjni73Ma4fwOJ/BblhOMU9WzlKeZkreOycx3Obvae4quq/U4zZ+grHB3VKxrgfNlrfArQq2gr8GqWkkwy72SMN2PAtex3Obuu1w6rjcmSEvKxkjLys9IIqup9cUQibylJIZrdPZc0R362kkusd9iMt2e9ZVFrfpHG0tPNGO0Nl4HjYg/ALTdy5Gm7lyLHRR+DY3TVjOUp5mytG+x6Te5zDm3zCkFoaBERAFEYv7Y90fMqXURi/tj3R8ygJdERAEREAWDjmItpaaWodujY51usgZN8zYeazlXeubFNimjpQc5n7Tvcjsf5yw/dKlowzzUSOrPJByKfkkc4lzjdziS4niTmT8SuhC7JZX9ikufXB6vkKiOTcA6zvddkfhe/krLJVVStVhYDWctTxvPtW2XeLcj8bX81iPGxyY2F0pdiRul11uuLrc4DtdbLoPWWkfCdzhtDxbkfiCPStXusjDavkZmS9lwJ8NzvwJUVannpuJ0YWruq0Z+/wDBaaLgG+a5Xnj2IREQBERAEREARFomsjTrmA5vBZ1U4XJOYiadziOLjwHmeAOUm3ZGUm3ZG1YxjlLRt2qidkV9wcekfdYM3eQVHaxNIhiVa3kC58LA2OEWLS5zrbR2TmCXENz7IWNgGjVbi0rpAS4X+kqJSSL9V97jY+yN2W7JffR7CeQxuGlkIeYqixI3HYu9psd24Gy6IxUfknjFR+S5dC9G2YdStiABldZ0r+Ln8fujcB1d5KnJZWsaXOcGtAuXEgAAcSTuWDpFifNKSapDNsxsLg29rkbgTwCpKSfFcflLRd0YObR9HTx8RtdZ8dp3UooxctWRKLlqzddKta0MV46Jonk3cq64iHhxk8rDvK0zDtHsTxuTnErjsH/WlyYBvtFGN490AdZurA0W1Y0tLaSotVTDPpD6Jp/Zj+t4uv4BbLpBpHS0DNqeUMuOiwZvd7rBmfHcOtbZktII2zJaRNSodUNE0fSzTSu42LY2+TQCR8SsbFdT8Dmk01TJG/gJQ17D3XABHjn4Lvhut6nfMWzU74YiejJtcoR3vYBl90uVh0VZHOwSxSNkjducxwcD5hYcpx4mG5riecqyjrcIqhcmCdubXsN2vbxsdz29YI8Qru0D0sZiVPtEBk8dhKwbrnc9v7LrHwII4XOVpjo7HiFK+FwAkALonkZseNx8DuI4glUnq9xR9HicN7tD3chK33zs2Pg/ZPkVtpUj7m/nj7nohERQEAURi/tj3R8ypdRGL+2PdHzKAl0REAREQBULrLxTnOIy2N2RWhb9y+3/ABlw8grqx/EhS0stQf8ATYXAHi7c0ebiB5rzc9xcS5xu4m5J4k5kqy2fTu3PscGOqWSidLIuUVoVtzo4LYNCqqzpITx6bfKzXf8AH4KBIW3atMANVNPJbKKI7P2kmTPKzXfgo6klBZmHTdWLguJNXS663XF1KVB2uuCV1uuLoZsWVopWcrSsuekzoH7u7+Gyl1o2gVbsyvhJyeNoeLd/xB/hW8qgxVPJVa7nrMDV3lCL9Vp9BERc51hERAEREBj4jWNghkmf7EbHPd4NBJ+S86YXSzYtiAa930k8hdI4fVb7TiL9TRYeDQrv1jEjCqq3+3byJaD+F1WmpRrTiLyd4p329cQKmp6RbJqekWy5sOoY6eJsMTAyNgs1o/8A2Z4k8VTLP+qP/JP8hV3qkGf9Uf8Akn+QrFP1+DWn6/BZ2sL/ACur+yd/RaXqcr4qeiqpZpGxRiVt3ONh7Ay7z3DNbprC/wArq/snf0VI6KaJVWJOIhs2Jh6cjz0Wkjg0Zudbq8yFmCTg7mYJOLublpVrYc68VA3ZG7l5G9I97Izu8XfBa1oho4cXqHOmrQ117u2nbdQ/vY13Abr526lZ2EassPhiLJI+cPcLOkeSCPsw32PEZ95Wl6Var56a89E8ysb0tgnZmZbO7XCwdbyPitoyjwWhtGUeC0NtxTVXQSQhkO1BK0ZSBxftH/uNdk7yt8MlXdTQYpgMpkaS2Mn+8Z04H9Qe07jwzAPUeKk9Fdak8Fo6sGpi/wBwWErR38H+dj3lWzhGMUtfEXQyNmjIs5tsxf6r4zmPAhatyjx1Ri8o8dUalotrRpqi0dUBTS9on6F3g8+x4Oy7yquxYtfishhIc11WSwtNwdqS4II3i5Vk6Waq4ZQ6WiIgl38kf7p3cOMfll3DeqswyQ0VbG+eF14JWufEcnXYb+FxkRwOWdjdbwy6uJtDLq4nptF8KGsjniZNG4Oje0Oa4cQcwvuuY5wojF/bHuj5lS6iMX9se6PmUBLoiIAiIgK61y4nsU8VKDnK7bd7se4HxcQfuqo1s+sXE+c4jKQbsj+hb9y+1/GX/gtaXoMLTyUku5RYmpnqt9jquLLtZLLosQXOtleWqvCub4ex5FnzkynwNgzy2Wg/eKpnCaB1TPHTt3yPay/UCcz5C58l6TgiaxrWNFmtAaB1ACwCrdoztFQ5ljgIXbkVppJScjVSNt0Sdtvg7P53Hkou63TWBR3bHOBuOw7wOY+BB9S0m668NUz0kymxlHd1pR9OP2c3S663XF10HMZWHVhhmZKPqOBPhucPMEhW21wIuMwdypm6szQ6t5WkZc9KP6M/d9n+EtVbtGn4VPsXGyatpSpv11JtERVBehERAEREBh4zQCpp5ad2Qljey/VtAi/le68+6IYo7DcRY+UFoY50Uw4gHov9JAd91ejlTeuvCIYpoqlh2ZZtoPZbJ3Jhv0ncc2tPXl1Zy0n+1+pLTf7WXEx4cA4EEEXBBuCDuIKo/TvDK2hxKTEWRnkzJykcoG2wXAFnj6vEZ7+BXx0I1iS0DRBK0z0w3AH6SMdTCci39k+RG5XHgmPUtfGXQStkbazmHJzb8HxnMfIpZ037Czgys63WXHWYdUU08fJVDoy1pZd0bz82HuNx3qV1Gf4ap+1b/IFlaVaraeovJSEU0u/YteFx90Zs+7l3LQKOuxPAZixzNhrjcseNqKW3Frxxt1G4yuOC3tGUbRNtJK0T0CsfEP7mT3HfIrUMH1oUE0RfM408jRd0bgXX+zc0dPwsD3LTdKdaM9TeCjYYY3XbtEB0z78A3MMuL9Z7wolTk2RqnJsitWOjcGIuninDhsxNLHNdZzSTa44HwIK40m0Yq8ElZPHUdFxLY5YyWPvv2Xs8B3g28lN6jP8AE1H2TP5ipnXn/haf7Y/yOUzk89vQlcnnsblodiMlTQQTykGR7AXECwJzF7cL2Wj668CaY469gs9pEcluLXX2HHvDsvv9y23Vz/lVL9n/AFKxNbD2jCZ78TEB48rGf6E+SijpPQijpMgdSGLF8E1I435JwezubJfaA7g5pP31ZqpfUe088nP1RDn4l7bfJyuhKq8QqLxBRGL+2PdHzKl1EYv7Y90fMqM0JdERAFHaRYkKWlmqDvYwlt+LjkwebiB5qRVda48T2YYqUHORxkd7rMgD4uN/uKbD095UUSKvU3dNyKnJJzJuTmSd5PWuLLtZcL0ljztzvDFtcV9ebDrKxwbZrLik2vFSQUXoyGo5rVPQkNHK/mVQKhrBI9ocGh17AuFr5cbEjzW3/wD9PqP1eL4u/NaIixPC0Zu8o3EMZWgrRl/w27E9Y008Zikp4wx1rkF1xYg3Ge8WuvhdanK1T2FT7cTesdE+X/1ZRqjClpBWRirVnV8U3dmbdcXXF1xdZIjtdbTq+rtmd8JOUjbj3mfmCfStTuvvh9YYZWSj6jg7xHEeYuPNR1qe8puJNh6m6qxnyLlRdWPDgHA3BFwe4rsvMnrQiIgCIiAKnNeZPOabs8m+3jtNv/xVxquddWEGWljqmi5gcQ73JLAnyc1nkSt6btJG9N+I6aGaKUOIYPBysI5T6QcqyzZQ4SPHtjfuGTrjdktUx7QOvwyTnNK98rG5iSG7ZWD9uMbx1kXB4gKV1NaStjc6gldYPdtwknLaIAdH52BHftdyt9bylKMmbOTjIqbRTWzujrm3G7l4x+MkY+bfgmnGsynkjfTU8LKhpydJOy8fi2M5uPebW71telWr6jrryBvITnPlYwOkf+4zc7xyPevjotq3pKIiST/1M4zD5GgNaf2IswD3m57wl4cReHErLRXV9WV1nlvN4D/qSNN3D9iPIu8TYd5VuYJofSYfC/kY9qXYcDM/pSHLr+qO5tgsrSTSukw9t55emRdsTelI7wbwHebDvVT45p5iGJv5tSxuiY7IRxXdK4bjtyDcM87WA4kp4p/BnxT+DN1Ef38/2LP5lN68/wDC0/2x/kcs3VhoXPh/KTTuaHyNa0RNz2QCT0n7id2QyHWeEdr0mHI00f1jI93k1tj+Lws3vU0F71NDa9XP+VUv2f8AUqvtcWk7ZpG0MTtpkTtqVwORksQGA8dkE37yBvBWut08rGULKGJzYWMaWmRlxI4Ek2DvqZG1xn3hSOger+Wte2eoaYqQG/Su18vc0bw08XdW7rGVDK80jKjleZm56mMFMNI+qeLOqCNn7Nlw0+Zc4+FlYa6xRhrQ1oDWgAAAWAAyAA4BdlBJ3dyGTu7hRGL+2PdHzKl1EYv7Y90fMrBgl0REAVDaf4nznEJXA3Yw8k3wjuD8XF581c2kuJc1pJp+LGHZ949Fg9RC88n4q12ZSu3PsVe0qlkodzquF2Syt7FTc6rNwWgdUVMUDb3ke1txwF+kfJtz5LDst+1QYZt1MlSRlE3Zbl9eS+YPc0OH3goa9Td03ImoQ3lRRPhppog+icZY7vpid+8xk7mv7up3kc9+qr0XLG17S1wDmkEEEXBB3gg7wqn030LdSkzwAup97m7zH+be/hx61BgdoZ7U6nH0fP8Aslx2z8l6lPh6rl/RpTwsrA5bPczrFx4jf+HyWMV82SbD2v6j+G4/hdWVRaFXDkbNdcXXF1xdQmbHN1xdcXXF1kyWloPXctRtBPSjJjPg3Nv8JHwWwKuNXVfsVDoScpW5e8y5/lLvgFY687jKe7rNc9T02Cq7yin6rT6CIi5TrCIiAL51EDZGOje0OY4FrmnMEEWII8F9EQHn7TrQmXDZDIwOfSE3ZILkx9TZDwI4O3HLjkpfRrWtUQNEdVHzloyEgOzLb9q+T/HI9ZKuh7A4EEAg5EEXBB4ELTcX1Y4dOS5rHU7j/suAb+7cC0eQCmVRNWkSqaatIwjrdoNm/JVF+zsM+e3ZatpFrWqZxydLHzdpy277cpv2eDfxPUQp9mp2mvnVzkdQEYPxsfktL010JnwyTlott9NcOZMPajIzAkLfZIO5wsDluOS2iqd9DaKhfQltG9WFTVO5ete6FrjtEE7U7+9xN9nxNz3BWvgmBU1FHydPC2McSM3O73PObj4qpsB1s1ULQyoibUgfXB5OTzsC13wCm59ccWz0KKQu6nSNaPiLn8FrOM2YlGbLNmlaxpe5wa1oJLibAAZkkncF5807x84pXXhBdGLRQNtm659qx3Fzj8A1ddJ9NazEiInHYiJFoIgekeAd9Z5vw3dy33VnoC6ncK2rbaa30URz5O+W2/8AbtuHC/Xuyo5Fd8TKWTV8TYdG9A6KkZGTTskqA1u1I+7+nbNzQ64bne1gFtSIoW2+JC23xCIiwYCiMX9se6PmVLqIxf2x7o+ZQEuiIgNK1tRSOoAWAljZWmS3Zs4Anu2i38FTi9LuAIsRcHgow6N0Jz5lT/uI/wAlY4XHKjDK0V+KwTrTzJnnpLL0J+jVD+pU/wC4j/JP0aof1Kn/AHEf5Lp/KQ6Wc34yfUjz0VemrvCTS0DA5uzJITI8HIgutsgjgQ0Ny67qUgwCjjcHspIGuGYc2FgIPWCBkpJcmLxu+iopWR14XB7mTk3cLhwBFiLg8Fyi4DuKt040IMO1U0rbxb3xjezrc0cWd3Dw3V9KF6TUc/AaMu2jSQlxzJMLL3672VtQ2m4wy1Ff3KmvsxTnmpu3sUzSgiNoO8AL6XVxf2DSfqsP7pn5J/YNJ+qQ/umfkt/ycOlkP4qfUinLri6uT+wKP9Uh/dM/JP7BpP1SH90z8ln8nDpY/FT6kVbo2x7qyAR32hI05cGgjbJ7tm6uNY1JQQw35KJkd9+wxrb+NlkqvxeJVeSaVrFjhMM6EWm73CIi5TrCIiAIiIAiIgC4c0EWIuDvBXKIDUcW1b4bUEu5EwuO8wu2B6M2/goqLVDQg3M1Q4dRfGB8QwFWGi2zy5m2eXMhcC0UoqLOCna1+7lDd7/W65HgMlNIiw3c1buERFgBERAFEYv7Y90fMqXURi/tj3R8ygJdERAEREAREQBERAEREAREQBERAEREAREQBERAEREAREQBERAEREAREQBERAEREAREQBRGL+2PdHzKl1EYv7Y90fMoCS5wztt9QTnDO231BEQDnDO231BOcM7bfUERAOcM7bfUE5wztt9QREA5wztt9QTnDO231BEQDnDO231BOcM7bfUERAOcM7bfUE5wztt9QREA5wztt9QTnDO231BEQDnDO231BOcM7bfUERAOcM7bfUE5wztt9QREA5wztt9QTnDO231BEQDnDO231BOcM7bfUERAOcM7bfUE5wztt9QREA5wztt9QTnDO231BEQDnDO231BOcM7bfUERAOcM7bfUE5wztt9QREA5wztt9QTnDO231BEQDnDO231BOcM7bfUERAOcM7bfUE5wztt9QREA5wztt9QUTi07NsdNvsj6w6yiID//2Q==;" parent="pCziPXWChVOFplWuD26y-7" vertex="1">
                    <mxGeometry x="137.86" width="62.14" height="34.8" as="geometry"/>
                </mxCell>
                <mxCell id="pCziPXWChVOFplWuD26y-29" style="edgeStyle=none;html=1;" parent="1" source="pCziPXWChVOFplWuD26y-10" edge="1">
                    <mxGeometry relative="1" as="geometry">
                        <mxPoint x="460" y="320" as="targetPoint"/>
                    </mxGeometry>
                </mxCell>
                <mxCell id="pCziPXWChVOFplWuD26y-10" value="" style="swimlane;startSize=0;" parent="1" vertex="1">
                    <mxGeometry x="190" y="12.8" width="330" height="187.2" as="geometry"/>
                </mxCell>
                <mxCell id="f54tod3o_qEHw63Fl2D4-1" value="" style="aspect=fixed;html=1;points=[];align=center;image;fontSize=12;image=img/lib/azure2/storage/Storage_Accounts.svg;" parent="pCziPXWChVOFplWuD26y-10" vertex="1">
                    <mxGeometry x="42.5" y="82.5" width="65" height="52" as="geometry"/>
                </mxCell>
                <mxCell id="pCziPXWChVOFplWuD26y-13" value="Fact_Evaluation_Dataset" style="text;html=1;strokeColor=none;fillColor=none;align=center;verticalAlign=middle;whiteSpace=wrap;rounded=0;" parent="pCziPXWChVOFplWuD26y-10" vertex="1">
                    <mxGeometry x="40" y="134.5" width="70" height="37" as="geometry"/>
                </mxCell>
                <mxCell id="pCziPXWChVOFplWuD26y-17" value="" style="aspect=fixed;html=1;points=[];align=center;image;fontSize=12;image=img/lib/azure2/storage/Storage_Accounts.svg;" parent="pCziPXWChVOFplWuD26y-10" vertex="1">
                    <mxGeometry x="170" y="17.2" width="65" height="52" as="geometry"/>
                </mxCell>
                <mxCell id="pCziPXWChVOFplWuD26y-18" value="" style="aspect=fixed;html=1;points=[];align=center;image;fontSize=12;image=img/lib/azure2/storage/Storage_Accounts.svg;" parent="pCziPXWChVOFplWuD26y-10" vertex="1">
                    <mxGeometry x="250" y="17.2" width="65" height="52" as="geometry"/>
                </mxCell>
                <mxCell id="pCziPXWChVOFplWuD26y-19" value="" style="aspect=fixed;html=1;points=[];align=center;image;fontSize=12;image=img/lib/azure2/storage/Storage_Accounts.svg;" parent="pCziPXWChVOFplWuD26y-10" vertex="1">
                    <mxGeometry x="170" y="77.2" width="65" height="52" as="geometry"/>
                </mxCell>
                <mxCell id="pCziPXWChVOFplWuD26y-20" value="" style="aspect=fixed;html=1;points=[];align=center;image;fontSize=12;image=img/lib/azure2/storage/Storage_Accounts.svg;" parent="pCziPXWChVOFplWuD26y-10" vertex="1">
                    <mxGeometry x="250" y="77.2" width="65" height="52" as="geometry"/>
                </mxCell>
                <mxCell id="pCziPXWChVOFplWuD26y-21" value="Dimension Tables" style="text;html=1;strokeColor=none;fillColor=none;align=center;verticalAlign=middle;whiteSpace=wrap;rounded=0;" parent="pCziPXWChVOFplWuD26y-10" vertex="1">
                    <mxGeometry x="170" y="134.5" width="130" height="37" as="geometry"/>
                </mxCell>
                <mxCell id="pCziPXWChVOFplWuD26y-22" style="edgeStyle=none;html=1;" parent="1" source="_bwpJgluy6Un3BcAoZjj-4" edge="1">
                    <mxGeometry relative="1" as="geometry">
                        <mxPoint x="270" y="210" as="targetPoint"/>
                    </mxGeometry>
                </mxCell>
                <mxCell id="pCziPXWChVOFplWuD26y-23" value="Write" style="verticalLabelPosition=bottom;verticalAlign=top;html=1;shadow=0;dashed=0;strokeWidth=1;shape=mxgraph.android.text_insertion_point;" parent="1" vertex="1">
                    <mxGeometry x="230" y="240" width="20" height="30" as="geometry"/>
                </mxCell>
                <mxCell id="pCziPXWChVOFplWuD26y-28" value="Read" style="verticalLabelPosition=bottom;verticalAlign=top;html=1;shadow=0;dashed=0;strokeWidth=1;shape=mxgraph.android.text_insertion_point;direction=south;" parent="1" vertex="1">
                    <mxGeometry x="120" y="310" width="30" height="25" as="geometry"/>
                </mxCell>
                <mxCell id="pCziPXWChVOFplWuD26y-30" value="Read" style="verticalLabelPosition=bottom;verticalAlign=top;html=1;shadow=0;dashed=0;strokeWidth=1;shape=mxgraph.android.text_insertion_point;direction=south;" parent="1" vertex="1">
                    <mxGeometry x="450" y="245" width="30" height="25" as="geometry"/>
                </mxCell>
                <mxCell id="pCziPXWChVOFplWuD26y-50" style="edgeStyle=none;html=1;" parent="1" source="pCziPXWChVOFplWuD26y-34" edge="1">
                    <mxGeometry relative="1" as="geometry">
                        <mxPoint x="830" y="382.9000000000001" as="targetPoint"/>
                    </mxGeometry>
                </mxCell>
                <mxCell id="pCziPXWChVOFplWuD26y-34" value="" style="swimlane;startSize=0;" parent="1" vertex="1">
                    <mxGeometry x="910" y="319.15" width="200" height="127.5" as="geometry"/>
                </mxCell>
                <mxCell id="pCziPXWChVOFplWuD26y-35" value="" style="aspect=fixed;html=1;points=[];align=center;image;fontSize=12;image=img/lib/azure2/ai_machine_learning/Machine_Learning.svg;" parent="pCziPXWChVOFplWuD26y-34" vertex="1">
                    <mxGeometry x="68" y="14.900000000000006" width="64" height="68" as="geometry"/>
                </mxCell>
                <mxCell id="pCziPXWChVOFplWuD26y-36" value="Business Metrics Pipeline" style="rounded=1;arcSize=9;fillColor=#F7F8F9;align=left;spacingLeft=5;strokeColor=#DEE1E6;html=1;strokeWidth=2;fontColor=#596780;fontSize=12" parent="pCziPXWChVOFplWuD26y-34" vertex="1">
                    <mxGeometry x="25" y="93" width="165" height="33" as="geometry"/>
                </mxCell>
                <mxCell id="pCziPXWChVOFplWuD26y-42" value="" style="swimlane;startSize=0;" parent="1" vertex="1">
                    <mxGeometry x="597.5" y="70" width="200" height="127.5" as="geometry"/>
                </mxCell>
                <mxCell id="pCziPXWChVOFplWuD26y-43" value="" style="aspect=fixed;html=1;points=[];align=center;image;fontSize=12;image=img/lib/azure2/ai_machine_learning/Machine_Learning.svg;" parent="pCziPXWChVOFplWuD26y-42" vertex="1">
                    <mxGeometry x="68" y="14.900000000000006" width="64" height="68" as="geometry"/>
                </mxCell>
                <mxCell id="pCziPXWChVOFplWuD26y-44" value="Operational Metrics Pipeline" style="rounded=1;arcSize=9;fillColor=#F7F8F9;align=left;spacingLeft=5;strokeColor=#DEE1E6;html=1;strokeWidth=2;fontColor=#596780;fontSize=12" parent="pCziPXWChVOFplWuD26y-42" vertex="1">
                    <mxGeometry x="25" y="93" width="165" height="33" as="geometry"/>
                </mxCell>
                <mxCell id="pCziPXWChVOFplWuD26y-47" value="" style="verticalLabelPosition=bottom;verticalAlign=top;html=1;shadow=0;dashed=0;strokeWidth=1;shape=mxgraph.android.text_insertion_point;" parent="1" vertex="1">
                    <mxGeometry x="730" y="436.78" width="20" height="30" as="geometry"/>
                </mxCell>
                <mxCell id="pCziPXWChVOFplWuD26y-48" value="SQL data fetched&lt;br&gt;&amp;nbsp;for power BI&lt;br&gt;" style="text;html=1;align=center;verticalAlign=middle;resizable=0;points=[];autosize=1;strokeColor=none;fillColor=none;" parent="1" vertex="1">
                    <mxGeometry x="650" y="470" width="120" height="40" as="geometry"/>
                </mxCell>
                <mxCell id="pCziPXWChVOFplWuD26y-49" value="" style="swimlane;startSize=0;" parent="1" vertex="1">
                    <mxGeometry x="700" y="245" width="120" height="165" as="geometry"/>
                </mxCell>
                <mxCell id="pCziPXWChVOFplWuD26y-51" value="Metric Store" style="text;html=1;strokeColor=none;fillColor=none;align=center;verticalAlign=middle;whiteSpace=wrap;rounded=0;" parent="pCziPXWChVOFplWuD26y-49" vertex="1">
                    <mxGeometry x="22.5" y="5" width="82.5" height="30" as="geometry"/>
                </mxCell>
            </root>
        </mxGraphModel>
    </diagram>
    <diagram id="NFfJkVeyjOWWGZ-0c88H" name="Data Model">
        <mxGraphModel dx="1048" dy="692" grid="1" gridSize="10" guides="1" tooltips="1" connect="1" arrows="1" fold="1" page="1" pageScale="1" pageWidth="827" pageHeight="1169" math="0" shadow="0">
            <root>
                <mxCell id="0"/>
                <mxCell id="1" parent="0"/>
                <mxCell id="AzVhXwKrXtD11nIgE9ff-1" value="Dim_Conversation" style="shape=table;startSize=30;container=1;collapsible=1;childLayout=tableLayout;fixedRows=1;rowLines=0;fontStyle=1;align=center;resizeLast=1;fillColor=#1ba1e2;fontColor=#ffffff;strokeColor=#006EAF;" parent="1" vertex="1">
                    <mxGeometry x="220" y="30" width="180" height="120" as="geometry"/>
                </mxCell>
                <mxCell id="AzVhXwKrXtD11nIgE9ff-2" value="" style="shape=tableRow;horizontal=0;startSize=0;swimlaneHead=0;swimlaneBody=0;fillColor=none;collapsible=0;dropTarget=0;points=[[0,0.5],[1,0.5]];portConstraint=eastwest;top=0;left=0;right=0;bottom=1;" parent="AzVhXwKrXtD11nIgE9ff-1" vertex="1">
                    <mxGeometry y="30" width="180" height="30" as="geometry"/>
                </mxCell>
                <mxCell id="AzVhXwKrXtD11nIgE9ff-3" value="PK" style="shape=partialRectangle;connectable=0;fillColor=none;top=0;left=0;bottom=0;right=0;fontStyle=1;overflow=hidden;" parent="AzVhXwKrXtD11nIgE9ff-2" vertex="1">
                    <mxGeometry width="30" height="30" as="geometry">
                        <mxRectangle width="30" height="30" as="alternateBounds"/>
                    </mxGeometry>
                </mxCell>
                <mxCell id="AzVhXwKrXtD11nIgE9ff-4" value="conversation_id" style="shape=partialRectangle;connectable=0;fillColor=none;top=0;left=0;bottom=0;right=0;align=left;spacingLeft=6;fontStyle=5;overflow=hidden;" parent="AzVhXwKrXtD11nIgE9ff-2" vertex="1">
                    <mxGeometry x="30" width="150" height="30" as="geometry">
                        <mxRectangle width="150" height="30" as="alternateBounds"/>
                    </mxGeometry>
                </mxCell>
                <mxCell id="AzVhXwKrXtD11nIgE9ff-8" value="" style="shape=tableRow;horizontal=0;startSize=0;swimlaneHead=0;swimlaneBody=0;fillColor=none;collapsible=0;dropTarget=0;points=[[0,0.5],[1,0.5]];portConstraint=eastwest;top=0;left=0;right=0;bottom=0;" parent="AzVhXwKrXtD11nIgE9ff-1" vertex="1">
                    <mxGeometry y="60" width="180" height="30" as="geometry"/>
                </mxCell>
                <mxCell id="AzVhXwKrXtD11nIgE9ff-9" value="" style="shape=partialRectangle;connectable=0;fillColor=none;top=0;left=0;bottom=0;right=0;editable=1;overflow=hidden;" parent="AzVhXwKrXtD11nIgE9ff-8" vertex="1">
                    <mxGeometry width="30" height="30" as="geometry">
                        <mxRectangle width="30" height="30" as="alternateBounds"/>
                    </mxGeometry>
                </mxCell>
                <mxCell id="AzVhXwKrXtD11nIgE9ff-10" value="conv_start_time" style="shape=partialRectangle;connectable=0;fillColor=none;top=0;left=0;bottom=0;right=0;align=left;spacingLeft=6;overflow=hidden;" parent="AzVhXwKrXtD11nIgE9ff-8" vertex="1">
                    <mxGeometry x="30" width="150" height="30" as="geometry">
                        <mxRectangle width="150" height="30" as="alternateBounds"/>
                    </mxGeometry>
                </mxCell>
                <mxCell id="AzVhXwKrXtD11nIgE9ff-11" value="" style="shape=tableRow;horizontal=0;startSize=0;swimlaneHead=0;swimlaneBody=0;fillColor=none;collapsible=0;dropTarget=0;points=[[0,0.5],[1,0.5]];portConstraint=eastwest;top=0;left=0;right=0;bottom=0;" parent="AzVhXwKrXtD11nIgE9ff-1" vertex="1">
                    <mxGeometry y="90" width="180" height="30" as="geometry"/>
                </mxCell>
                <mxCell id="AzVhXwKrXtD11nIgE9ff-12" value="" style="shape=partialRectangle;connectable=0;fillColor=none;top=0;left=0;bottom=0;right=0;editable=1;overflow=hidden;" parent="AzVhXwKrXtD11nIgE9ff-11" vertex="1">
                    <mxGeometry width="30" height="30" as="geometry">
                        <mxRectangle width="30" height="30" as="alternateBounds"/>
                    </mxGeometry>
                </mxCell>
                <mxCell id="AzVhXwKrXtD11nIgE9ff-13" value="conv_end_time" style="shape=partialRectangle;connectable=0;fillColor=none;top=0;left=0;bottom=0;right=0;align=left;spacingLeft=6;overflow=hidden;" parent="AzVhXwKrXtD11nIgE9ff-11" vertex="1">
                    <mxGeometry x="30" width="150" height="30" as="geometry">
                        <mxRectangle width="150" height="30" as="alternateBounds"/>
                    </mxGeometry>
                </mxCell>
                <mxCell id="AzVhXwKrXtD11nIgE9ff-14" value="Dim_Metadata" style="shape=table;startSize=30;container=1;collapsible=1;childLayout=tableLayout;fixedRows=1;rowLines=0;fontStyle=1;align=center;resizeLast=1;fillColor=#1ba1e2;fontColor=#ffffff;strokeColor=#006EAF;" parent="1" vertex="1">
                    <mxGeometry x="430" y="30" width="180" height="90" as="geometry"/>
                </mxCell>
                <mxCell id="AzVhXwKrXtD11nIgE9ff-15" value="" style="shape=tableRow;horizontal=0;startSize=0;swimlaneHead=0;swimlaneBody=0;fillColor=none;collapsible=0;dropTarget=0;points=[[0,0.5],[1,0.5]];portConstraint=eastwest;top=0;left=0;right=0;bottom=1;" parent="AzVhXwKrXtD11nIgE9ff-14" vertex="1">
                    <mxGeometry y="30" width="180" height="30" as="geometry"/>
                </mxCell>
                <mxCell id="AzVhXwKrXtD11nIgE9ff-16" value="PK" style="shape=partialRectangle;connectable=0;fillColor=none;top=0;left=0;bottom=0;right=0;fontStyle=1;overflow=hidden;" parent="AzVhXwKrXtD11nIgE9ff-15" vertex="1">
                    <mxGeometry width="30" height="30" as="geometry">
                        <mxRectangle width="30" height="30" as="alternateBounds"/>
                    </mxGeometry>
                </mxCell>
                <mxCell id="AzVhXwKrXtD11nIgE9ff-17" value="metadata_id" style="shape=partialRectangle;connectable=0;fillColor=none;top=0;left=0;bottom=0;right=0;align=left;spacingLeft=6;fontStyle=5;overflow=hidden;" parent="AzVhXwKrXtD11nIgE9ff-15" vertex="1">
                    <mxGeometry x="30" width="150" height="30" as="geometry">
                        <mxRectangle width="150" height="30" as="alternateBounds"/>
                    </mxGeometry>
                </mxCell>
                <mxCell id="AzVhXwKrXtD11nIgE9ff-18" value="" style="shape=tableRow;horizontal=0;startSize=0;swimlaneHead=0;swimlaneBody=0;fillColor=none;collapsible=0;dropTarget=0;points=[[0,0.5],[1,0.5]];portConstraint=eastwest;top=0;left=0;right=0;bottom=0;" parent="AzVhXwKrXtD11nIgE9ff-14" vertex="1">
                    <mxGeometry y="60" width="180" height="30" as="geometry"/>
                </mxCell>
                <mxCell id="AzVhXwKrXtD11nIgE9ff-19" value="" style="shape=partialRectangle;connectable=0;fillColor=none;top=0;left=0;bottom=0;right=0;editable=1;overflow=hidden;" parent="AzVhXwKrXtD11nIgE9ff-18" vertex="1">
                    <mxGeometry width="30" height="30" as="geometry">
                        <mxRectangle width="30" height="30" as="alternateBounds"/>
                    </mxGeometry>
                </mxCell>
                <mxCell id="AzVhXwKrXtD11nIgE9ff-20" value="intent" style="shape=partialRectangle;connectable=0;fillColor=none;top=0;left=0;bottom=0;right=0;align=left;spacingLeft=6;overflow=hidden;" parent="AzVhXwKrXtD11nIgE9ff-18" vertex="1">
                    <mxGeometry x="30" width="150" height="30" as="geometry">
                        <mxRectangle width="150" height="30" as="alternateBounds"/>
                    </mxGeometry>
                </mxCell>
                <mxCell id="AzVhXwKrXtD11nIgE9ff-27" value="Fact_Evaluation_Dataset" style="shape=table;startSize=30;container=1;collapsible=1;childLayout=tableLayout;fixedRows=1;rowLines=0;fontStyle=1;align=center;resizeLast=1;fillColor=#60a917;fontColor=#ffffff;strokeColor=#2D7600;" parent="1" vertex="1">
                    <mxGeometry x="70" y="240" width="180" height="240" as="geometry"/>
                </mxCell>
                <mxCell id="AzVhXwKrXtD11nIgE9ff-28" value="" style="shape=tableRow;horizontal=0;startSize=0;swimlaneHead=0;swimlaneBody=0;fillColor=none;collapsible=0;dropTarget=0;points=[[0,0.5],[1,0.5]];portConstraint=eastwest;top=0;left=0;right=0;bottom=1;" parent="AzVhXwKrXtD11nIgE9ff-27" vertex="1">
                    <mxGeometry y="30" width="180" height="30" as="geometry"/>
                </mxCell>
                <mxCell id="AzVhXwKrXtD11nIgE9ff-29" value="PK" style="shape=partialRectangle;connectable=0;fillColor=none;top=0;left=0;bottom=0;right=0;fontStyle=1;overflow=hidden;" parent="AzVhXwKrXtD11nIgE9ff-28" vertex="1">
                    <mxGeometry width="30" height="30" as="geometry">
                        <mxRectangle width="30" height="30" as="alternateBounds"/>
                    </mxGeometry>
                </mxCell>
                <mxCell id="AzVhXwKrXtD11nIgE9ff-30" value="evaluation_dataset_id" style="shape=partialRectangle;connectable=0;fillColor=none;top=0;left=0;bottom=0;right=0;align=left;spacingLeft=6;fontStyle=5;overflow=hidden;" parent="AzVhXwKrXtD11nIgE9ff-28" vertex="1">
                    <mxGeometry x="30" width="150" height="30" as="geometry">
                        <mxRectangle width="150" height="30" as="alternateBounds"/>
                    </mxGeometry>
                </mxCell>
                <mxCell id="AzVhXwKrXtD11nIgE9ff-31" value="" style="shape=tableRow;horizontal=0;startSize=0;swimlaneHead=0;swimlaneBody=0;fillColor=none;collapsible=0;dropTarget=0;points=[[0,0.5],[1,0.5]];portConstraint=eastwest;top=0;left=0;right=0;bottom=0;" parent="AzVhXwKrXtD11nIgE9ff-27" vertex="1">
                    <mxGeometry y="60" width="180" height="30" as="geometry"/>
                </mxCell>
                <mxCell id="AzVhXwKrXtD11nIgE9ff-32" value="" style="shape=partialRectangle;connectable=0;fillColor=none;top=0;left=0;bottom=0;right=0;editable=1;overflow=hidden;" parent="AzVhXwKrXtD11nIgE9ff-31" vertex="1">
                    <mxGeometry width="30" height="30" as="geometry">
                        <mxRectangle width="30" height="30" as="alternateBounds"/>
                    </mxGeometry>
                </mxCell>
                <mxCell id="AzVhXwKrXtD11nIgE9ff-33" value="conversation_id" style="shape=partialRectangle;connectable=0;fillColor=none;top=0;left=0;bottom=0;right=0;align=left;spacingLeft=6;overflow=hidden;" parent="AzVhXwKrXtD11nIgE9ff-31" vertex="1">
                    <mxGeometry x="30" width="150" height="30" as="geometry">
                        <mxRectangle width="150" height="30" as="alternateBounds"/>
                    </mxGeometry>
                </mxCell>
                <mxCell id="AzVhXwKrXtD11nIgE9ff-34" value="" style="shape=tableRow;horizontal=0;startSize=0;swimlaneHead=0;swimlaneBody=0;fillColor=none;collapsible=0;dropTarget=0;points=[[0,0.5],[1,0.5]];portConstraint=eastwest;top=0;left=0;right=0;bottom=0;" parent="AzVhXwKrXtD11nIgE9ff-27" vertex="1">
                    <mxGeometry y="90" width="180" height="30" as="geometry"/>
                </mxCell>
                <mxCell id="AzVhXwKrXtD11nIgE9ff-35" value="" style="shape=partialRectangle;connectable=0;fillColor=none;top=0;left=0;bottom=0;right=0;editable=1;overflow=hidden;" parent="AzVhXwKrXtD11nIgE9ff-34" vertex="1">
                    <mxGeometry width="30" height="30" as="geometry">
                        <mxRectangle width="30" height="30" as="alternateBounds"/>
                    </mxGeometry>
                </mxCell>
                <mxCell id="AzVhXwKrXtD11nIgE9ff-36" value="metadata_id" style="shape=partialRectangle;connectable=0;fillColor=none;top=0;left=0;bottom=0;right=0;align=left;spacingLeft=6;overflow=hidden;" parent="AzVhXwKrXtD11nIgE9ff-34" vertex="1">
                    <mxGeometry x="30" width="150" height="30" as="geometry">
                        <mxRectangle width="150" height="30" as="alternateBounds"/>
                    </mxGeometry>
                </mxCell>
                <mxCell id="AzVhXwKrXtD11nIgE9ff-37" value="" style="shape=tableRow;horizontal=0;startSize=0;swimlaneHead=0;swimlaneBody=0;fillColor=none;collapsible=0;dropTarget=0;points=[[0,0.5],[1,0.5]];portConstraint=eastwest;top=0;left=0;right=0;bottom=0;" parent="AzVhXwKrXtD11nIgE9ff-27" vertex="1">
                    <mxGeometry y="120" width="180" height="30" as="geometry"/>
                </mxCell>
                <mxCell id="AzVhXwKrXtD11nIgE9ff-38" value="" style="shape=partialRectangle;connectable=0;fillColor=none;top=0;left=0;bottom=0;right=0;editable=1;overflow=hidden;" parent="AzVhXwKrXtD11nIgE9ff-37" vertex="1">
                    <mxGeometry width="30" height="30" as="geometry">
                        <mxRectangle width="30" height="30" as="alternateBounds"/>
                    </mxGeometry>
                </mxCell>
                <mxCell id="AzVhXwKrXtD11nIgE9ff-39" value="turn_id" style="shape=partialRectangle;connectable=0;fillColor=none;top=0;left=0;bottom=0;right=0;align=left;spacingLeft=6;overflow=hidden;" parent="AzVhXwKrXtD11nIgE9ff-37" vertex="1">
                    <mxGeometry x="30" width="150" height="30" as="geometry">
                        <mxRectangle width="150" height="30" as="alternateBounds"/>
                    </mxGeometry>
                </mxCell>
                <mxCell id="AzVhXwKrXtD11nIgE9ff-94" value="" style="shape=tableRow;horizontal=0;startSize=0;swimlaneHead=0;swimlaneBody=0;fillColor=none;collapsible=0;dropTarget=0;points=[[0,0.5],[1,0.5]];portConstraint=eastwest;top=0;left=0;right=0;bottom=0;" parent="AzVhXwKrXtD11nIgE9ff-27" vertex="1">
                    <mxGeometry y="150" width="180" height="30" as="geometry"/>
                </mxCell>
                <mxCell id="AzVhXwKrXtD11nIgE9ff-95" value="" style="shape=partialRectangle;connectable=0;fillColor=none;top=0;left=0;bottom=0;right=0;editable=1;overflow=hidden;" parent="AzVhXwKrXtD11nIgE9ff-94" vertex="1">
                    <mxGeometry width="30" height="30" as="geometry">
                        <mxRectangle width="30" height="30" as="alternateBounds"/>
                    </mxGeometry>
                </mxCell>
                <mxCell id="AzVhXwKrXtD11nIgE9ff-96" value="response" style="shape=partialRectangle;connectable=0;fillColor=none;top=0;left=0;bottom=0;right=0;align=left;spacingLeft=6;overflow=hidden;" parent="AzVhXwKrXtD11nIgE9ff-94" vertex="1">
                    <mxGeometry x="30" width="150" height="30" as="geometry">
                        <mxRectangle width="150" height="30" as="alternateBounds"/>
                    </mxGeometry>
                </mxCell>
                <mxCell id="AzVhXwKrXtD11nIgE9ff-97" value="" style="shape=tableRow;horizontal=0;startSize=0;swimlaneHead=0;swimlaneBody=0;fillColor=none;collapsible=0;dropTarget=0;points=[[0,0.5],[1,0.5]];portConstraint=eastwest;top=0;left=0;right=0;bottom=0;" parent="AzVhXwKrXtD11nIgE9ff-27" vertex="1">
                    <mxGeometry y="180" width="180" height="30" as="geometry"/>
                </mxCell>
                <mxCell id="AzVhXwKrXtD11nIgE9ff-98" value="" style="shape=partialRectangle;connectable=0;fillColor=none;top=0;left=0;bottom=0;right=0;editable=1;overflow=hidden;" parent="AzVhXwKrXtD11nIgE9ff-97" vertex="1">
                    <mxGeometry width="30" height="30" as="geometry">
                        <mxRectangle width="30" height="30" as="alternateBounds"/>
                    </mxGeometry>
                </mxCell>
                <mxCell id="AzVhXwKrXtD11nIgE9ff-99" value="context" style="shape=partialRectangle;connectable=0;fillColor=none;top=0;left=0;bottom=0;right=0;align=left;spacingLeft=6;overflow=hidden;" parent="AzVhXwKrXtD11nIgE9ff-97" vertex="1">
                    <mxGeometry x="30" width="150" height="30" as="geometry">
                        <mxRectangle width="150" height="30" as="alternateBounds"/>
                    </mxGeometry>
                </mxCell>
                <mxCell id="AzVhXwKrXtD11nIgE9ff-113" value="" style="shape=tableRow;horizontal=0;startSize=0;swimlaneHead=0;swimlaneBody=0;fillColor=none;collapsible=0;dropTarget=0;points=[[0,0.5],[1,0.5]];portConstraint=eastwest;top=0;left=0;right=0;bottom=0;" parent="AzVhXwKrXtD11nIgE9ff-27" vertex="1">
                    <mxGeometry y="210" width="180" height="30" as="geometry"/>
                </mxCell>
                <mxCell id="AzVhXwKrXtD11nIgE9ff-114" value="" style="shape=partialRectangle;connectable=0;fillColor=none;top=0;left=0;bottom=0;right=0;editable=1;overflow=hidden;" parent="AzVhXwKrXtD11nIgE9ff-113" vertex="1">
                    <mxGeometry width="30" height="30" as="geometry">
                        <mxRectangle width="30" height="30" as="alternateBounds"/>
                    </mxGeometry>
                </mxCell>
                <mxCell id="AzVhXwKrXtD11nIgE9ff-115" value="query" style="shape=partialRectangle;connectable=0;fillColor=none;top=0;left=0;bottom=0;right=0;align=left;spacingLeft=6;overflow=hidden;" parent="AzVhXwKrXtD11nIgE9ff-113" vertex="1">
                    <mxGeometry x="30" width="150" height="30" as="geometry">
                        <mxRectangle width="150" height="30" as="alternateBounds"/>
                    </mxGeometry>
                </mxCell>
                <mxCell id="AzVhXwKrXtD11nIgE9ff-40" value="Fact_Evaluation_Metric" style="shape=table;startSize=30;container=1;collapsible=1;childLayout=tableLayout;fixedRows=1;rowLines=0;fontStyle=1;align=center;resizeLast=1;fillColor=#60a917;fontColor=#ffffff;strokeColor=#2D7600;" parent="1" vertex="1">
                    <mxGeometry x="370" y="240" width="180" height="360" as="geometry"/>
                </mxCell>
                <mxCell id="AzVhXwKrXtD11nIgE9ff-41" value="" style="shape=tableRow;horizontal=0;startSize=0;swimlaneHead=0;swimlaneBody=0;fillColor=none;collapsible=0;dropTarget=0;points=[[0,0.5],[1,0.5]];portConstraint=eastwest;top=0;left=0;right=0;bottom=1;" parent="AzVhXwKrXtD11nIgE9ff-40" vertex="1">
                    <mxGeometry y="30" width="180" height="30" as="geometry"/>
                </mxCell>
                <mxCell id="AzVhXwKrXtD11nIgE9ff-42" value="PK" style="shape=partialRectangle;connectable=0;fillColor=none;top=0;left=0;bottom=0;right=0;fontStyle=1;overflow=hidden;" parent="AzVhXwKrXtD11nIgE9ff-41" vertex="1">
                    <mxGeometry width="30" height="30" as="geometry">
                        <mxRectangle width="30" height="30" as="alternateBounds"/>
                    </mxGeometry>
                </mxCell>
                <mxCell id="AzVhXwKrXtD11nIgE9ff-43" value="metric_fact_id" style="shape=partialRectangle;connectable=0;fillColor=none;top=0;left=0;bottom=0;right=0;align=left;spacingLeft=6;fontStyle=5;overflow=hidden;" parent="AzVhXwKrXtD11nIgE9ff-41" vertex="1">
                    <mxGeometry x="30" width="150" height="30" as="geometry">
                        <mxRectangle width="150" height="30" as="alternateBounds"/>
                    </mxGeometry>
                </mxCell>
                <mxCell id="AzVhXwKrXtD11nIgE9ff-44" value="" style="shape=tableRow;horizontal=0;startSize=0;swimlaneHead=0;swimlaneBody=0;fillColor=none;collapsible=0;dropTarget=0;points=[[0,0.5],[1,0.5]];portConstraint=eastwest;top=0;left=0;right=0;bottom=0;" parent="AzVhXwKrXtD11nIgE9ff-40" vertex="1">
                    <mxGeometry y="60" width="180" height="30" as="geometry"/>
                </mxCell>
                <mxCell id="AzVhXwKrXtD11nIgE9ff-45" value="" style="shape=partialRectangle;connectable=0;fillColor=none;top=0;left=0;bottom=0;right=0;editable=1;overflow=hidden;" parent="AzVhXwKrXtD11nIgE9ff-44" vertex="1">
                    <mxGeometry width="30" height="30" as="geometry">
                        <mxRectangle width="30" height="30" as="alternateBounds"/>
                    </mxGeometry>
                </mxCell>
                <mxCell id="AzVhXwKrXtD11nIgE9ff-46" value="metric_id" style="shape=partialRectangle;connectable=0;fillColor=none;top=0;left=0;bottom=0;right=0;align=left;spacingLeft=6;overflow=hidden;" parent="AzVhXwKrXtD11nIgE9ff-44" vertex="1">
                    <mxGeometry x="30" width="150" height="30" as="geometry">
                        <mxRectangle width="150" height="30" as="alternateBounds"/>
                    </mxGeometry>
                </mxCell>
                <mxCell id="AzVhXwKrXtD11nIgE9ff-47" value="" style="shape=tableRow;horizontal=0;startSize=0;swimlaneHead=0;swimlaneBody=0;fillColor=none;collapsible=0;dropTarget=0;points=[[0,0.5],[1,0.5]];portConstraint=eastwest;top=0;left=0;right=0;bottom=0;" parent="AzVhXwKrXtD11nIgE9ff-40" vertex="1">
                    <mxGeometry y="90" width="180" height="30" as="geometry"/>
                </mxCell>
                <mxCell id="AzVhXwKrXtD11nIgE9ff-48" value="" style="shape=partialRectangle;connectable=0;fillColor=none;top=0;left=0;bottom=0;right=0;editable=1;overflow=hidden;" parent="AzVhXwKrXtD11nIgE9ff-47" vertex="1">
                    <mxGeometry width="30" height="30" as="geometry">
                        <mxRectangle width="30" height="30" as="alternateBounds"/>
                    </mxGeometry>
                </mxCell>
                <mxCell id="AzVhXwKrXtD11nIgE9ff-49" value="evaluation_dataset_id" style="shape=partialRectangle;connectable=0;fillColor=none;top=0;left=0;bottom=0;right=0;align=left;spacingLeft=6;overflow=hidden;" parent="AzVhXwKrXtD11nIgE9ff-47" vertex="1">
                    <mxGeometry x="30" width="150" height="30" as="geometry">
                        <mxRectangle width="150" height="30" as="alternateBounds"/>
                    </mxGeometry>
                </mxCell>
                <mxCell id="AzVhXwKrXtD11nIgE9ff-50" value="" style="shape=tableRow;horizontal=0;startSize=0;swimlaneHead=0;swimlaneBody=0;fillColor=none;collapsible=0;dropTarget=0;points=[[0,0.5],[1,0.5]];portConstraint=eastwest;top=0;left=0;right=0;bottom=0;" parent="AzVhXwKrXtD11nIgE9ff-40" vertex="1">
                    <mxGeometry y="120" width="180" height="30" as="geometry"/>
                </mxCell>
                <mxCell id="AzVhXwKrXtD11nIgE9ff-51" value="" style="shape=partialRectangle;connectable=0;fillColor=none;top=0;left=0;bottom=0;right=0;editable=1;overflow=hidden;" parent="AzVhXwKrXtD11nIgE9ff-50" vertex="1">
                    <mxGeometry width="30" height="30" as="geometry">
                        <mxRectangle width="30" height="30" as="alternateBounds"/>
                    </mxGeometry>
                </mxCell>
                <mxCell id="AzVhXwKrXtD11nIgE9ff-52" value="app_id" style="shape=partialRectangle;connectable=0;fillColor=none;top=0;left=0;bottom=0;right=0;align=left;spacingLeft=6;overflow=hidden;" parent="AzVhXwKrXtD11nIgE9ff-50" vertex="1">
                    <mxGeometry x="30" width="150" height="30" as="geometry">
                        <mxRectangle width="150" height="30" as="alternateBounds"/>
                    </mxGeometry>
                </mxCell>
                <mxCell id="AzVhXwKrXtD11nIgE9ff-132" value="" style="shape=tableRow;horizontal=0;startSize=0;swimlaneHead=0;swimlaneBody=0;fillColor=none;collapsible=0;dropTarget=0;points=[[0,0.5],[1,0.5]];portConstraint=eastwest;top=0;left=0;right=0;bottom=0;" parent="AzVhXwKrXtD11nIgE9ff-40" vertex="1">
                    <mxGeometry y="150" width="180" height="30" as="geometry"/>
                </mxCell>
                <mxCell id="AzVhXwKrXtD11nIgE9ff-133" value="" style="shape=partialRectangle;connectable=0;fillColor=none;top=0;left=0;bottom=0;right=0;editable=1;overflow=hidden;" parent="AzVhXwKrXtD11nIgE9ff-132" vertex="1">
                    <mxGeometry width="30" height="30" as="geometry">
                        <mxRectangle width="30" height="30" as="alternateBounds"/>
                    </mxGeometry>
                </mxCell>
                <mxCell id="AzVhXwKrXtD11nIgE9ff-134" value="conversation_id" style="shape=partialRectangle;connectable=0;fillColor=none;top=0;left=0;bottom=0;right=0;align=left;spacingLeft=6;overflow=hidden;" parent="AzVhXwKrXtD11nIgE9ff-132" vertex="1">
                    <mxGeometry x="30" width="150" height="30" as="geometry">
                        <mxRectangle width="150" height="30" as="alternateBounds"/>
                    </mxGeometry>
                </mxCell>
                <mxCell id="AzVhXwKrXtD11nIgE9ff-135" value="" style="shape=tableRow;horizontal=0;startSize=0;swimlaneHead=0;swimlaneBody=0;fillColor=none;collapsible=0;dropTarget=0;points=[[0,0.5],[1,0.5]];portConstraint=eastwest;top=0;left=0;right=0;bottom=0;" parent="AzVhXwKrXtD11nIgE9ff-40" vertex="1">
                    <mxGeometry y="180" width="180" height="30" as="geometry"/>
                </mxCell>
                <mxCell id="AzVhXwKrXtD11nIgE9ff-136" value="" style="shape=partialRectangle;connectable=0;fillColor=none;top=0;left=0;bottom=0;right=0;editable=1;overflow=hidden;" parent="AzVhXwKrXtD11nIgE9ff-135" vertex="1">
                    <mxGeometry width="30" height="30" as="geometry">
                        <mxRectangle width="30" height="30" as="alternateBounds"/>
                    </mxGeometry>
                </mxCell>
                <mxCell id="AzVhXwKrXtD11nIgE9ff-137" value="metadata_id" style="shape=partialRectangle;connectable=0;fillColor=none;top=0;left=0;bottom=0;right=0;align=left;spacingLeft=6;overflow=hidden;" parent="AzVhXwKrXtD11nIgE9ff-135" vertex="1">
                    <mxGeometry x="30" width="150" height="30" as="geometry">
                        <mxRectangle width="150" height="30" as="alternateBounds"/>
                    </mxGeometry>
                </mxCell>
                <mxCell id="AzVhXwKrXtD11nIgE9ff-138" value="" style="shape=tableRow;horizontal=0;startSize=0;swimlaneHead=0;swimlaneBody=0;fillColor=none;collapsible=0;dropTarget=0;points=[[0,0.5],[1,0.5]];portConstraint=eastwest;top=0;left=0;right=0;bottom=0;" parent="AzVhXwKrXtD11nIgE9ff-40" vertex="1">
                    <mxGeometry y="210" width="180" height="30" as="geometry"/>
                </mxCell>
                <mxCell id="AzVhXwKrXtD11nIgE9ff-139" value="" style="shape=partialRectangle;connectable=0;fillColor=none;top=0;left=0;bottom=0;right=0;editable=1;overflow=hidden;" parent="AzVhXwKrXtD11nIgE9ff-138" vertex="1">
                    <mxGeometry width="30" height="30" as="geometry">
                        <mxRectangle width="30" height="30" as="alternateBounds"/>
                    </mxGeometry>
                </mxCell>
                <mxCell id="AzVhXwKrXtD11nIgE9ff-140" value="evaluator_metadata" style="shape=partialRectangle;connectable=0;fillColor=none;top=0;left=0;bottom=0;right=0;align=left;spacingLeft=6;overflow=hidden;" parent="AzVhXwKrXtD11nIgE9ff-138" vertex="1">
                    <mxGeometry x="30" width="150" height="30" as="geometry">
                        <mxRectangle width="150" height="30" as="alternateBounds"/>
                    </mxGeometry>
                </mxCell>
                <mxCell id="AzVhXwKrXtD11nIgE9ff-141" value="" style="shape=tableRow;horizontal=0;startSize=0;swimlaneHead=0;swimlaneBody=0;fillColor=none;collapsible=0;dropTarget=0;points=[[0,0.5],[1,0.5]];portConstraint=eastwest;top=0;left=0;right=0;bottom=0;" parent="AzVhXwKrXtD11nIgE9ff-40" vertex="1">
                    <mxGeometry y="240" width="180" height="30" as="geometry"/>
                </mxCell>
                <mxCell id="AzVhXwKrXtD11nIgE9ff-142" value="" style="shape=partialRectangle;connectable=0;fillColor=none;top=0;left=0;bottom=0;right=0;editable=1;overflow=hidden;" parent="AzVhXwKrXtD11nIgE9ff-141" vertex="1">
                    <mxGeometry width="30" height="30" as="geometry">
                        <mxRectangle width="30" height="30" as="alternateBounds"/>
                    </mxGeometry>
                </mxCell>
                <mxCell id="AzVhXwKrXtD11nIgE9ff-143" value="metric_numeric_value" style="shape=partialRectangle;connectable=0;fillColor=none;top=0;left=0;bottom=0;right=0;align=left;spacingLeft=6;overflow=hidden;" parent="AzVhXwKrXtD11nIgE9ff-141" vertex="1">
                    <mxGeometry x="30" width="150" height="30" as="geometry">
                        <mxRectangle width="150" height="30" as="alternateBounds"/>
                    </mxGeometry>
                </mxCell>
                <mxCell id="AzVhXwKrXtD11nIgE9ff-144" value="" style="shape=tableRow;horizontal=0;startSize=0;swimlaneHead=0;swimlaneBody=0;fillColor=none;collapsible=0;dropTarget=0;points=[[0,0.5],[1,0.5]];portConstraint=eastwest;top=0;left=0;right=0;bottom=0;" parent="AzVhXwKrXtD11nIgE9ff-40" vertex="1">
                    <mxGeometry y="270" width="180" height="30" as="geometry"/>
                </mxCell>
                <mxCell id="AzVhXwKrXtD11nIgE9ff-145" value="" style="shape=partialRectangle;connectable=0;fillColor=none;top=0;left=0;bottom=0;right=0;editable=1;overflow=hidden;" parent="AzVhXwKrXtD11nIgE9ff-144" vertex="1">
                    <mxGeometry width="30" height="30" as="geometry">
                        <mxRectangle width="30" height="30" as="alternateBounds"/>
                    </mxGeometry>
                </mxCell>
                <mxCell id="AzVhXwKrXtD11nIgE9ff-146" value="metric_str_value" style="shape=partialRectangle;connectable=0;fillColor=none;top=0;left=0;bottom=0;right=0;align=left;spacingLeft=6;overflow=hidden;" parent="AzVhXwKrXtD11nIgE9ff-144" vertex="1">
                    <mxGeometry x="30" width="150" height="30" as="geometry">
                        <mxRectangle width="150" height="30" as="alternateBounds"/>
                    </mxGeometry>
                </mxCell>
                <mxCell id="AzVhXwKrXtD11nIgE9ff-147" value="" style="shape=tableRow;horizontal=0;startSize=0;swimlaneHead=0;swimlaneBody=0;fillColor=none;collapsible=0;dropTarget=0;points=[[0,0.5],[1,0.5]];portConstraint=eastwest;top=0;left=0;right=0;bottom=0;" parent="AzVhXwKrXtD11nIgE9ff-40" vertex="1">
                    <mxGeometry y="300" width="180" height="30" as="geometry"/>
                </mxCell>
                <mxCell id="AzVhXwKrXtD11nIgE9ff-148" value="" style="shape=partialRectangle;connectable=0;fillColor=none;top=0;left=0;bottom=0;right=0;editable=1;overflow=hidden;" parent="AzVhXwKrXtD11nIgE9ff-147" vertex="1">
                    <mxGeometry width="30" height="30" as="geometry">
                        <mxRectangle width="30" height="30" as="alternateBounds"/>
                    </mxGeometry>
                </mxCell>
                <mxCell id="AzVhXwKrXtD11nIgE9ff-149" value="metric_raw_value" style="shape=partialRectangle;connectable=0;fillColor=none;top=0;left=0;bottom=0;right=0;align=left;spacingLeft=6;overflow=hidden;" parent="AzVhXwKrXtD11nIgE9ff-147" vertex="1">
                    <mxGeometry x="30" width="150" height="30" as="geometry">
                        <mxRectangle width="150" height="30" as="alternateBounds"/>
                    </mxGeometry>
                </mxCell>
                <mxCell id="AzVhXwKrXtD11nIgE9ff-150" value="" style="shape=tableRow;horizontal=0;startSize=0;swimlaneHead=0;swimlaneBody=0;fillColor=none;collapsible=0;dropTarget=0;points=[[0,0.5],[1,0.5]];portConstraint=eastwest;top=0;left=0;right=0;bottom=0;" parent="AzVhXwKrXtD11nIgE9ff-40" vertex="1">
                    <mxGeometry y="330" width="180" height="30" as="geometry"/>
                </mxCell>
                <mxCell id="AzVhXwKrXtD11nIgE9ff-151" value="" style="shape=partialRectangle;connectable=0;fillColor=none;top=0;left=0;bottom=0;right=0;editable=1;overflow=hidden;" parent="AzVhXwKrXtD11nIgE9ff-150" vertex="1">
                    <mxGeometry width="30" height="30" as="geometry">
                        <mxRectangle width="30" height="30" as="alternateBounds"/>
                    </mxGeometry>
                </mxCell>
                <mxCell id="AzVhXwKrXtD11nIgE9ff-152" value="fact_creation_time" style="shape=partialRectangle;connectable=0;fillColor=none;top=0;left=0;bottom=0;right=0;align=left;spacingLeft=6;overflow=hidden;" parent="AzVhXwKrXtD11nIgE9ff-150" vertex="1">
                    <mxGeometry x="30" width="150" height="30" as="geometry">
                        <mxRectangle width="150" height="30" as="alternateBounds"/>
                    </mxGeometry>
                </mxCell>
                <mxCell id="AzVhXwKrXtD11nIgE9ff-53" value="Dim_Metric" style="shape=table;startSize=30;container=1;collapsible=1;childLayout=tableLayout;fixedRows=1;rowLines=0;fontStyle=1;align=center;resizeLast=1;fillColor=#1ba1e2;fontColor=#ffffff;strokeColor=#006EAF;" parent="1" vertex="1">
                    <mxGeometry x="640" y="30" width="180" height="210" as="geometry"/>
                </mxCell>
                <mxCell id="AzVhXwKrXtD11nIgE9ff-54" value="" style="shape=tableRow;horizontal=0;startSize=0;swimlaneHead=0;swimlaneBody=0;fillColor=none;collapsible=0;dropTarget=0;points=[[0,0.5],[1,0.5]];portConstraint=eastwest;top=0;left=0;right=0;bottom=1;" parent="AzVhXwKrXtD11nIgE9ff-53" vertex="1">
                    <mxGeometry y="30" width="180" height="30" as="geometry"/>
                </mxCell>
                <mxCell id="AzVhXwKrXtD11nIgE9ff-55" value="PK" style="shape=partialRectangle;connectable=0;fillColor=none;top=0;left=0;bottom=0;right=0;fontStyle=1;overflow=hidden;" parent="AzVhXwKrXtD11nIgE9ff-54" vertex="1">
                    <mxGeometry width="30" height="30" as="geometry">
                        <mxRectangle width="30" height="30" as="alternateBounds"/>
                    </mxGeometry>
                </mxCell>
                <mxCell id="AzVhXwKrXtD11nIgE9ff-56" value="metric_id" style="shape=partialRectangle;connectable=0;fillColor=none;top=0;left=0;bottom=0;right=0;align=left;spacingLeft=6;fontStyle=5;overflow=hidden;" parent="AzVhXwKrXtD11nIgE9ff-54" vertex="1">
                    <mxGeometry x="30" width="150" height="30" as="geometry">
                        <mxRectangle width="150" height="30" as="alternateBounds"/>
                    </mxGeometry>
                </mxCell>
                <mxCell id="AzVhXwKrXtD11nIgE9ff-57" value="" style="shape=tableRow;horizontal=0;startSize=0;swimlaneHead=0;swimlaneBody=0;fillColor=none;collapsible=0;dropTarget=0;points=[[0,0.5],[1,0.5]];portConstraint=eastwest;top=0;left=0;right=0;bottom=0;" parent="AzVhXwKrXtD11nIgE9ff-53" vertex="1">
                    <mxGeometry y="60" width="180" height="30" as="geometry"/>
                </mxCell>
                <mxCell id="AzVhXwKrXtD11nIgE9ff-58" value="" style="shape=partialRectangle;connectable=0;fillColor=none;top=0;left=0;bottom=0;right=0;editable=1;overflow=hidden;" parent="AzVhXwKrXtD11nIgE9ff-57" vertex="1">
                    <mxGeometry width="30" height="30" as="geometry">
                        <mxRectangle width="30" height="30" as="alternateBounds"/>
                    </mxGeometry>
                </mxCell>
                <mxCell id="AzVhXwKrXtD11nIgE9ff-59" value="metric_name" style="shape=partialRectangle;connectable=0;fillColor=none;top=0;left=0;bottom=0;right=0;align=left;spacingLeft=6;overflow=hidden;" parent="AzVhXwKrXtD11nIgE9ff-57" vertex="1">
                    <mxGeometry x="30" width="150" height="30" as="geometry">
                        <mxRectangle width="150" height="30" as="alternateBounds"/>
                    </mxGeometry>
                </mxCell>
                <mxCell id="AzVhXwKrXtD11nIgE9ff-60" value="" style="shape=tableRow;horizontal=0;startSize=0;swimlaneHead=0;swimlaneBody=0;fillColor=none;collapsible=0;dropTarget=0;points=[[0,0.5],[1,0.5]];portConstraint=eastwest;top=0;left=0;right=0;bottom=0;" parent="AzVhXwKrXtD11nIgE9ff-53" vertex="1">
                    <mxGeometry y="90" width="180" height="30" as="geometry"/>
                </mxCell>
                <mxCell id="AzVhXwKrXtD11nIgE9ff-61" value="" style="shape=partialRectangle;connectable=0;fillColor=none;top=0;left=0;bottom=0;right=0;editable=1;overflow=hidden;" parent="AzVhXwKrXtD11nIgE9ff-60" vertex="1">
                    <mxGeometry width="30" height="30" as="geometry">
                        <mxRectangle width="30" height="30" as="alternateBounds"/>
                    </mxGeometry>
                </mxCell>
                <mxCell id="AzVhXwKrXtD11nIgE9ff-62" value="metric_version" style="shape=partialRectangle;connectable=0;fillColor=none;top=0;left=0;bottom=0;right=0;align=left;spacingLeft=6;overflow=hidden;" parent="AzVhXwKrXtD11nIgE9ff-60" vertex="1">
                    <mxGeometry x="30" width="150" height="30" as="geometry">
                        <mxRectangle width="150" height="30" as="alternateBounds"/>
                    </mxGeometry>
                </mxCell>
                <mxCell id="AzVhXwKrXtD11nIgE9ff-63" value="" style="shape=tableRow;horizontal=0;startSize=0;swimlaneHead=0;swimlaneBody=0;fillColor=none;collapsible=0;dropTarget=0;points=[[0,0.5],[1,0.5]];portConstraint=eastwest;top=0;left=0;right=0;bottom=0;" parent="AzVhXwKrXtD11nIgE9ff-53" vertex="1">
                    <mxGeometry y="120" width="180" height="30" as="geometry"/>
                </mxCell>
                <mxCell id="AzVhXwKrXtD11nIgE9ff-64" value="" style="shape=partialRectangle;connectable=0;fillColor=none;top=0;left=0;bottom=0;right=0;editable=1;overflow=hidden;" parent="AzVhXwKrXtD11nIgE9ff-63" vertex="1">
                    <mxGeometry width="30" height="30" as="geometry">
                        <mxRectangle width="30" height="30" as="alternateBounds"/>
                    </mxGeometry>
                </mxCell>
                <mxCell id="AzVhXwKrXtD11nIgE9ff-65" value="metric_type" style="shape=partialRectangle;connectable=0;fillColor=none;top=0;left=0;bottom=0;right=0;align=left;spacingLeft=6;overflow=hidden;" parent="AzVhXwKrXtD11nIgE9ff-63" vertex="1">
                    <mxGeometry x="30" width="150" height="30" as="geometry">
                        <mxRectangle width="150" height="30" as="alternateBounds"/>
                    </mxGeometry>
                </mxCell>
                <mxCell id="AzVhXwKrXtD11nIgE9ff-91" value="" style="shape=tableRow;horizontal=0;startSize=0;swimlaneHead=0;swimlaneBody=0;fillColor=none;collapsible=0;dropTarget=0;points=[[0,0.5],[1,0.5]];portConstraint=eastwest;top=0;left=0;right=0;bottom=0;" parent="AzVhXwKrXtD11nIgE9ff-53" vertex="1">
                    <mxGeometry y="150" width="180" height="30" as="geometry"/>
                </mxCell>
                <mxCell id="AzVhXwKrXtD11nIgE9ff-92" value="" style="shape=partialRectangle;connectable=0;fillColor=none;top=0;left=0;bottom=0;right=0;editable=1;overflow=hidden;" parent="AzVhXwKrXtD11nIgE9ff-91" vertex="1">
                    <mxGeometry width="30" height="30" as="geometry">
                        <mxRectangle width="30" height="30" as="alternateBounds"/>
                    </mxGeometry>
                </mxCell>
                <mxCell id="AzVhXwKrXtD11nIgE9ff-93" value="evaluator_name" style="shape=partialRectangle;connectable=0;fillColor=none;top=0;left=0;bottom=0;right=0;align=left;spacingLeft=6;overflow=hidden;" parent="AzVhXwKrXtD11nIgE9ff-91" vertex="1">
                    <mxGeometry x="30" width="150" height="30" as="geometry">
                        <mxRectangle width="150" height="30" as="alternateBounds"/>
                    </mxGeometry>
                </mxCell>
                <mxCell id="AzVhXwKrXtD11nIgE9ff-129" value="" style="shape=tableRow;horizontal=0;startSize=0;swimlaneHead=0;swimlaneBody=0;fillColor=none;collapsible=0;dropTarget=0;points=[[0,0.5],[1,0.5]];portConstraint=eastwest;top=0;left=0;right=0;bottom=0;" parent="AzVhXwKrXtD11nIgE9ff-53" vertex="1">
                    <mxGeometry y="180" width="180" height="30" as="geometry"/>
                </mxCell>
                <mxCell id="AzVhXwKrXtD11nIgE9ff-130" value="" style="shape=partialRectangle;connectable=0;fillColor=none;top=0;left=0;bottom=0;right=0;editable=1;overflow=hidden;" parent="AzVhXwKrXtD11nIgE9ff-129" vertex="1">
                    <mxGeometry width="30" height="30" as="geometry">
                        <mxRectangle width="30" height="30" as="alternateBounds"/>
                    </mxGeometry>
                </mxCell>
                <mxCell id="AzVhXwKrXtD11nIgE9ff-131" value="evaluator_type" style="shape=partialRectangle;connectable=0;fillColor=none;top=0;left=0;bottom=0;right=0;align=left;spacingLeft=6;overflow=hidden;" parent="AzVhXwKrXtD11nIgE9ff-129" vertex="1">
                    <mxGeometry x="30" width="150" height="30" as="geometry">
                        <mxRectangle width="150" height="30" as="alternateBounds"/>
                    </mxGeometry>
                </mxCell>
                <mxCell id="AzVhXwKrXtD11nIgE9ff-69" value="" style="shape=tableRow;horizontal=0;startSize=0;swimlaneHead=0;swimlaneBody=0;fillColor=none;collapsible=0;dropTarget=0;points=[[0,0.5],[1,0.5]];portConstraint=eastwest;top=0;left=0;right=0;bottom=0;direction=south;" parent="1" vertex="1">
                    <mxGeometry x="340" y="230" width="180" height="30" as="geometry"/>
                </mxCell>
                <mxCell id="AzVhXwKrXtD11nIgE9ff-70" value="" style="shape=partialRectangle;connectable=0;fillColor=none;top=0;left=0;bottom=0;right=0;editable=1;overflow=hidden;" parent="AzVhXwKrXtD11nIgE9ff-69" vertex="1">
                    <mxGeometry width="30" height="30" as="geometry">
                        <mxRectangle width="30" height="30" as="alternateBounds"/>
                    </mxGeometry>
                </mxCell>
                <mxCell id="AzVhXwKrXtD11nIgE9ff-86" value="" style="shape=tableRow;horizontal=0;startSize=0;swimlaneHead=0;swimlaneBody=0;fillColor=none;collapsible=0;dropTarget=0;points=[[0,0.5],[1,0.5]];portConstraint=eastwest;top=0;left=0;right=0;bottom=0;" parent="1" vertex="1">
                    <mxGeometry x="360" y="190" width="180" height="30" as="geometry"/>
                </mxCell>
                <mxCell id="vapxORGH0VkSi1jGqRrs-1" value="Dim_Application" style="shape=table;startSize=30;container=1;collapsible=1;childLayout=tableLayout;fixedRows=1;rowLines=0;fontStyle=1;align=center;resizeLast=1;fillColor=#1ba1e2;fontColor=#ffffff;strokeColor=#006EAF;" parent="1" vertex="1">
                    <mxGeometry x="10" y="30" width="180" height="90" as="geometry"/>
                </mxCell>
                <mxCell id="vapxORGH0VkSi1jGqRrs-2" value="" style="shape=tableRow;horizontal=0;startSize=0;swimlaneHead=0;swimlaneBody=0;fillColor=none;collapsible=0;dropTarget=0;points=[[0,0.5],[1,0.5]];portConstraint=eastwest;top=0;left=0;right=0;bottom=1;" parent="vapxORGH0VkSi1jGqRrs-1" vertex="1">
                    <mxGeometry y="30" width="180" height="30" as="geometry"/>
                </mxCell>
                <mxCell id="vapxORGH0VkSi1jGqRrs-3" value="PK" style="shape=partialRectangle;connectable=0;fillColor=none;top=0;left=0;bottom=0;right=0;fontStyle=1;overflow=hidden;" parent="vapxORGH0VkSi1jGqRrs-2" vertex="1">
                    <mxGeometry width="30" height="30" as="geometry">
                        <mxRectangle width="30" height="30" as="alternateBounds"/>
                    </mxGeometry>
                </mxCell>
                <mxCell id="vapxORGH0VkSi1jGqRrs-4" value="app_id" style="shape=partialRectangle;connectable=0;fillColor=none;top=0;left=0;bottom=0;right=0;align=left;spacingLeft=6;fontStyle=5;overflow=hidden;" parent="vapxORGH0VkSi1jGqRrs-2" vertex="1">
                    <mxGeometry x="30" width="150" height="30" as="geometry">
                        <mxRectangle width="150" height="30" as="alternateBounds"/>
                    </mxGeometry>
                </mxCell>
                <mxCell id="vapxORGH0VkSi1jGqRrs-5" value="" style="shape=tableRow;horizontal=0;startSize=0;swimlaneHead=0;swimlaneBody=0;fillColor=none;collapsible=0;dropTarget=0;points=[[0,0.5],[1,0.5]];portConstraint=eastwest;top=0;left=0;right=0;bottom=0;" parent="vapxORGH0VkSi1jGqRrs-1" vertex="1">
                    <mxGeometry y="60" width="180" height="30" as="geometry"/>
                </mxCell>
                <mxCell id="vapxORGH0VkSi1jGqRrs-6" value="" style="shape=partialRectangle;connectable=0;fillColor=none;top=0;left=0;bottom=0;right=0;editable=1;overflow=hidden;" parent="vapxORGH0VkSi1jGqRrs-5" vertex="1">
                    <mxGeometry width="30" height="30" as="geometry">
                        <mxRectangle width="30" height="30" as="alternateBounds"/>
                    </mxGeometry>
                </mxCell>
                <mxCell id="vapxORGH0VkSi1jGqRrs-7" value="app_name" style="shape=partialRectangle;connectable=0;fillColor=none;top=0;left=0;bottom=0;right=0;align=left;spacingLeft=6;overflow=hidden;" parent="vapxORGH0VkSi1jGqRrs-5" vertex="1">
                    <mxGeometry x="30" width="150" height="30" as="geometry">
                        <mxRectangle width="150" height="30" as="alternateBounds"/>
                    </mxGeometry>
                </mxCell>
            </root>
        </mxGraphModel>
    </diagram>
</mxfile>